<svg version="1.2" xmlns="http://www.w3.org/2000/svg" viewBox="0 0 2916 501" width="1164" height="200"><style>.a{fill:#fff}</style><path class="a" d="m792.7 204h-46.8l50.4-204h79.2l50.7 204h-47.7l-10.2-37.5h-66zm37.5-166.2l-21 91.2h53.1l-20.7-91.2zm240.3 166.2h-125.1v-204h47.4v164.4h77.7zm132.6 0h-47.4v-204h47.4v83.1l22.8-0.6 36.9-82.5h48.9l-45 100.5 48 103.5h-49.5l-39-78.6-23.1 0.6zm177 0h-47.4v-204h47.4v82.8h70.8v-82.8h47.4v204h-47.4v-81.6h-70.8zm184.8 0h-46.8l50.4-204h79.2l50.7 204h-47.7l-10.2-37.5h-66zm37.5-166.2l-21 91.2h53.1l-20.7-91.2zm199.5 166.2h-72l-32.4-204h47.7l21.9 157.8h6.6l27.6-155.7h52.5l28.2 155.7h6.9l20.1-157.8h48l-31.8 204h-73.5l-24.9-154.5h0.3zm201.6 0h-46.8l50.4-204h79.2l50.7 204h-47.7l-10.2-37.5h-66zm37.5-166.2l-21 91.2h53.1l-20.7-91.2zm162.6 166.2h-47.4v-204h81q25.8 0 42.9 6.3 17.1 6.3 25.5 21.3 8.7 14.7 8.7 41.1 0 21.9-7.5 36.9-7.5 15-22.5 22.5l29.4 75.9h-49.2l-23.7-65.1h-37.2zm0-165.6v62.1h34.8q9.9 0 15.9-3.9 6.3-4.2 9-11.4 2.7-7.2 2.7-16.5 0-15.3-6.9-22.8-6.9-7.5-21.9-7.5zm185.1 165.6h-47.4v-204h47.4zm173.7 0h-147.3v-40.8l86.1-118.2v-5.7h-86.1v-39.3h147.3v42.3l-85.8 116.7v5.4h85.8zm73.5 0h-47.4v-204h74.4l36 124.2 34.5-124.2h75.9v204h-47.4v-141.6h-3.9l-37.8 136.8h-42.9l-37.5-136.8h-3.9zm254.4 0h-47.4v-204h47.4z"/><path class="a" d="m769.2 497h-22v-172.5h22zm97.2 0h-22v-153h-51.7v-19.5h125v19.5h-51.3zm181.8 2.5q-23.5 0-37.3-6.2-13.5-6.5-19.2-18.3-5.8-12-5.8-28.5 0-14.7 4-24.2 4.3-9.8 12.8-15.8 8.5-6.2 21.2-10.5-6.2-7-9.2-12.5-3-5.7-4-11.5-1-5.7-1-13 0-11.2 5.2-19.5 5.3-8.5 15.3-13 10-4.7 24.5-4.7 15 0 25 4.7 10 4.5 14.7 13.3 5 8.5 5 20.5 0 9-2.2 15.7-2 6.8-6.8 12.3-4.5 5.2-11.7 10-7.3 4.5-17.3 9.2l35.8 35.5q1.5-4 2.7-10.7 1.5-7 2.8-14.5 1.2-7.8 1.5-13.3l20.2 0.3q-0.7 8.7-2.7 18.5-2 9.7-4.3 18.5-2.2 8.5-4.7 14.5l31.2 29-11.5 14-30.5-27q-8.5 13.5-22.2 20.5-13.8 6.7-31.5 6.7zm-1.5-19q13.5 0 23.7-5 10.5-5.2 16.3-15.7l-50.8-50.5q-10 3-16.2 7.5-6.3 4.5-9.3 11.2-3 6.8-3 16.8 0 17.5 9 26.7 9.3 9 30.3 9zm2.2-85.5q10.3-4.5 16.5-9 6.5-4.5 9.5-10.2 3-5.8 3-14.3 0-10.7-5.5-16.2-5.5-5.5-17.7-5.5-11 0-17.3 5.5-6 5.5-6 16.7 0 4.5 0.5 8 0.5 3.5 2.3 7 1.7 3.5 5.2 7.8 3.8 4.2 9.5 10.2zm196.8 102h-22v-172.5h64.5q18.7 0 31.2 5.5 12.5 5.5 18.8 17.3 6.5 11.7 6.5 30.2 0 19-7.5 32-7.5 12.8-23.3 18.3l32 69.2h-24l-29.5-64.5h-46.7zm0-153.5v70h43q12.2 0 19.5-4.5 7.5-4.7 10.5-12.7 3.2-8.3 3.2-18.5 0-17.3-8.2-25.8-8.3-8.5-25.5-8.5zm194.2 156q-27 0-42-9.7-15-10-21-29.5-6-19.8-6-48.8 0-28.7 6-48.7 6.3-20 21.3-30.5 15-10.5 41.7-10.5 27 0 42 10.5 15 10.2 21 30.5 6.3 20 6.3 48.7 0 29.8-6 49.3-6 19.5-21.3 29.2-15 9.5-42 9.5zm0-19.2q19.3 0 29.3-7.3 10-7.5 13.5-22.7 3.7-15.3 3.7-38.8 0-22.5-3.7-38.2-3.8-15.8-13.8-24-10-8.3-29-8.3-19 0-29 8.3-9.7 8.2-13.5 24-3.7 15.5-3.7 38.2 0 22.8 3.5 38 3.7 15.3 13.5 23 10 7.8 29.2 7.8zm169.5 16.7h-66.5v-172.5h63.8q17 0 28.5 4.5 11.5 4.5 17.5 14.3 6 9.5 6 25.2 0 10.8-2.8 18.5-2.5 7.5-7.2 12.5-4.5 5-11.5 8.8 7.5 2.5 13.5 7.2 6 4.8 9.5 12.8 3.7 7.7 3.7 20.2 0 13.5-4 23-3.7 9.3-11 15-7.2 5.5-17.2 8-9.8 2.5-22.3 2.5zm-44.5-78.2v59.7h43.5q10.3 0 17.8-2.7 7.5-2.8 11.5-9.3 4-6.7 4-19 0-9.2-3.5-15-3.3-6-8.8-8.7-5.2-3-11-4-5.7-1-10.7-1zm0-75.8v57.3h42.5q10.2 0 16.7-3.3 6.5-3.2 9.5-9.7 3-6.8 3-16.8 0-14.2-7.7-20.7-7.5-6.8-23.3-6.8zm194 156.5q-27 0-42-9.7-15-10-21-29.5-6-19.8-6-48.8 0-28.7 6-48.7 6.3-20 21.3-30.5 15-10.5 41.7-10.5 27 0 42 10.5 15 10.2 21 30.5 6.3 20 6.3 48.7 0 29.8-6 49.3-6 19.5-21.3 29.2-15 9.5-42 9.5zm0-19.2q19.3 0 29.3-7.3 10-7.5 13.5-22.7 3.7-15.3 3.7-38.8 0-22.5-3.7-38.2-3.8-15.8-13.8-24-10-8.3-29-8.3-19 0-29 8.3-9.7 8.2-13.5 24-3.7 15.5-3.7 38.2 0 22.8 3.5 38 3.7 15.3 13.5 23 10 7.8 29.2 7.8zm156.8 16.7h-22v-153h-51.8v-19.5h125v19.5h-51.2zm96.7 0h-22v-172.5h22zm98.3 2.5q-19.8 0-32.3-5.5-12.2-5.7-19.5-17-7-11.2-9.7-27.7-2.5-16.5-2.5-38.3 0-22 2.5-38.7 2.7-16.8 9.7-28 7.3-11.3 19.8-16.8 12.5-5.7 32-5.7 9 0 17.7 1 9 0.7 16.8 2.2 8 1.3 13.5 2.5l-0.8 18.3q-5.5-1-13.5-2-7.7-1-16-1.5-8.2-0.8-15-0.8-14 0-22.7 4-8.5 4-13.3 12.8-4.5 8.5-6.2 21.7-1.8 13-1.8 31 0 17.8 1.8 31 1.7 13 6.2 21.5 4.5 8.3 13.3 12.5 8.7 4 23 4 10.5 0 23-1.2 12.5-1.5 21.2-3l0.8 18.5q-6 1.2-14 2.5-8 1.2-17 2-8.8 0.7-17 0.7zm126.5-0.2q-8 0-18.3-0.8-10-1-20-2.2-10-1.5-17.5-2.5l2-18q7.5 0.7 17 1.7 9.8 1 19.3 1.8 9.5 0.7 16.2 0.7 11.8 0 19.5-3.5 7.8-3.5 11.5-10.5 4-7.2 4-18.5 0-9-3.5-14.5-3.5-5.5-11.7-8.5-8-3.2-21.8-6-13.7-2.7-24-6.2-10-3.5-16.7-9-6.8-5.5-10-13.8-3.3-8.2-3.3-20.5 0-17.2 7-27.5 7-10.5 19.8-15.2 12.7-4.8 29.7-4.8 7.5 0 17.3 1 9.7 0.8 19.2 2 9.5 1 16.3 2.3l-1.5 18.2q-7.5-1-17-1.7-9.5-1-18.5-1.8-8.8-0.7-14.3-0.7-11.5 0-19.5 3-8 2.7-12.2 8.7-4 5.8-4 14.8 0 10.7 4 16.2 4 5.5 13 8.8 9 3 23.5 6.2 13.2 3.3 22.7 6.8 9.5 3.5 15.8 8.7 6.2 5 9 12.8 3 7.7 3 19 0 19.2-7 31-6.8 11.7-19.3 17.2-12.5 5.3-29.7 5.3zm200.2 0.2q-19.7 0-32.2-5.5-12.3-5.7-19.5-17-7-11.2-9.8-27.7-2.5-16.5-2.5-38.3 0-22 2.5-38.7 2.8-16.8 9.8-28 7.2-11.3 19.7-16.8 12.5-5.7 32-5.7 9 0 17.8 1 9 0.7 16.7 2.2 8 1.3 13.5 2.5l-0.7 18.3q-5.5-1-13.5-2-7.8-1-16-1.5-8.3-0.8-15-0.8-14 0-22.8 4-8.5 4-13.2 12.8-4.5 8.5-6.3 21.7-1.7 13-1.7 31 0 17.8 1.7 31 1.8 13 6.3 21.5 4.5 8.3 13.2 12.5 8.8 4 23 4 10.5 0 23-1.2 12.5-1.5 21.3-3l0.7 18.5q-6 1.2-14 2.5-8 1.2-17 2-8.7 0.7-17 0.7zm174.5-2.5h-96.5v-172.5h22v153h74.5zm81 2.5q-19.2 0-33-5.5-13.5-5.5-20.7-17.7-7.3-12.3-7.3-32.5v-119.3h22v120q0 19 10.3 27.5 10.2 8.3 28.7 8.3 19.5 0 29.8-8.3 10.5-8.5 10.5-27.5v-120h22v119.3q0 20-7.3 32.5-7.2 12.2-21.2 17.7-13.8 5.5-33.8 5.5zm168-2.5h-66.5v-172.5h63.8q17 0 28.5 4.5 11.5 4.5 17.5 14.3 6 9.5 6 25.2 0 10.8-2.8 18.5-2.5 7.5-7.2 12.5-4.5 5-11.5 8.8 7.5 2.5 13.5 7.2 6 4.8 9.5 12.8 3.7 7.7 3.7 20.2 0 13.5-4 23-3.7 9.3-11 15-7.2 5.5-17.2 8-9.8 2.5-22.3 2.5zm-44.5-78.2v59.7h43.5q10.3 0 17.8-2.7 7.5-2.8 11.5-9.3 4-6.7 4-19 0-9.2-3.5-15-3.3-6-8.8-8.7-5.2-3-11-4-5.7-1-10.7-1zm0-75.8v57.3h42.5q10.2 0 16.7-3.3 6.5-3.2 9.5-9.7 3-6.8 3-16.8 0-14.2-7.7-20.7-7.5-6.8-23.3-6.8z"/><path fill-rule="evenodd" class="a" d="m124.4 275.9c12.2-13.3 34-13.3 46.7 0.2 3 3.2 114.9 168.4 117.7 172.5 15 22 0.2 51.4-26 51.4-4.4 0-222.7 0-230.6 0-26.1 0-41.2-29.4-26.4-51.4 3.7-5.4 116.5-170.5 118.6-172.7zm365.3 0c12.3-13.3 34.1-13.3 46.7 0.2 3 3.2 115 168.4 117.8 172.5 15 22 0.1 51.4-26.1 51.4-4.4 0-222.6 0-230.5 0-26.1 0-41.3-29.4-26.4-51.4 3.6-5.4 116.5-170.5 118.5-172.7zm-302.5-91.6c1.3-2.1 116.5-170.4 116.5-170.4 13.2-18.6 40.7-18.6 52.8 0 0 0 115.5 167.5 117.1 170.4 5.8 8.6 5.8 24.1 0 32.5-1.3 2-59.6 87-93.4 136.3v-139.6c9.9-2.1 17.4-10.9 17.4-21.5 0-12.1-9.8-21.9-21.9-21.9-12.1 0-21.9 9.8-21.9 21.9 0 10.6 7.4 19.4 17.3 21.4v152.9c-8.5 12.5-14.1 20.7-14.6 21.4-5.2 8.1-13.2 12.7-21.7 13.9v-246.4c10.1-2 17.7-11 17.7-21.7 0-12.2-9.9-22-22.1-22-12.2 0-22.1 9.8-22.1 22 0 10.6 7.5 19.5 17.4 21.6v246.4c-8.3-1.3-16.4-6-21.9-13.9-0.5-0.7-6-8.9-14.5-21.2v-113c10-2.1 17.4-10.9 17.4-21.4 0-12.2-9.8-22-21.9-22-12.1 0-21.9 9.8-21.9 22 0 10.4 7.3 19.1 17.1 21.3v99.4c-33.8-49.5-91.8-134.3-92.8-135.9-5.4-8.4-5.4-23.9 0-32.5zm143-41.9c-4.9 0-9-4-9-9 0-5 4.1-9.1 9-9.1 5 0 9.1 4.1 9.1 9.1 0 5-4.1 9-9.1 9zm-45.5 98.6c-4.9 0-8.9-4-8.9-8.9 0-4.9 4-8.8 8.9-8.8 4.9 0 8.8 3.9 8.8 8.8 0 4.9-3.9 8.9-8.8 8.9zm91-40c-5 0-9-4-9-9 0-5 4-9 9-9 5 0 9 4 9 9 0 5-4 9-9 9z"/></svg>