<svg version="1.2" xmlns="http://www.w3.org/2000/svg" viewBox="0 0 2096 19" width="2096" height="19"><style>.a{fill:#112b3c}</style><path class="a" d="m7.3 18.3q-1.5 0-2.7-0.5-1.1-0.4-1.9-1.3-0.9-1-1.3-2.7-0.4-1.7-0.4-4.1 0-2.6 0.4-4.4 0.4-1.8 1.2-2.8 0.9-1.1 2-1.5 1.2-0.4 2.7-0.4 1.5 0 2.7 0.4 1.1 0.4 1.9 1.5 0.8 1 1.2 2.8 0.4 1.7 0.4 4.4 0 3.3-0.7 5.1-0.8 1.9-2.2 2.7-1.3 0.8-3.3 0.8zm0-1.9q1 0 1.7-0.3 0.8-0.3 1.3-1.1 0.6-0.7 0.8-2 0.3-1.3 0.3-3.3 0-2.2-0.3-3.6-0.2-1.4-0.7-2.2-0.5-0.8-1.3-1.2-0.8-0.3-1.8-0.3-1.1 0-1.8 0.3-0.8 0.4-1.3 1.2-0.5 0.8-0.8 2.2-0.3 1.4-0.3 3.6 0 2 0.3 3.3 0.3 1.3 0.8 2.1 0.6 0.7 1.3 1 0.8 0.3 1.8 0.3zm17.4 1.6h-2.1v-14.8l-4.3 2.9-1-1.6 5.5-3.7h1.9zm14.6 0h-2.1v-14.8l-4.4 2.9-0.9-1.6 5.4-3.6h2zm11.7 0.2q-1.5 0-2.7-0.4-1.1-0.4-2-1.4-0.8-0.9-1.2-2.6-0.4-1.7-0.4-4.1 0-2.7 0.4-4.4 0.4-1.8 1.2-2.8 0.8-1.1 2-1.5 1.2-0.5 2.6-0.5 1.6 0 2.7 0.5 1.2 0.4 2 1.5 0.8 1 1.2 2.8 0.4 1.7 0.4 4.4 0 3.2-0.7 5.1-0.8 1.9-2.2 2.7-1.4 0.7-3.3 0.7zm0-1.8q1 0 1.7-0.3 0.8-0.3 1.3-1.1 0.5-0.7 0.8-2 0.3-1.4 0.3-3.3 0-2.2-0.3-3.6-0.2-1.4-0.7-2.2-0.5-0.8-1.3-1.2-0.8-0.3-1.8-0.3-1.1 0-1.9 0.3-0.7 0.4-1.3 1.2-0.5 0.8-0.7 2.2-0.3 1.4-0.3 3.6 0 2 0.3 3.3 0.3 1.3 0.8 2 0.5 0.8 1.3 1.1 0.8 0.3 1.8 0.3zm17.4 1.6h-2.1v-14.9l-4.4 2.9-0.9-1.5 5.4-3.7h2zm11.7 0.3q-1.5 0-2.7-0.4-1.1-0.5-1.9-1.4-0.9-1-1.3-2.7-0.4-1.6-0.4-4.1 0-2.6 0.4-4.4 0.4-1.8 1.2-2.8 0.9-1 2-1.5 1.2-0.4 2.7-0.4 1.5 0 2.7 0.4 1.1 0.5 1.9 1.5 0.8 1 1.2 2.8 0.4 1.7 0.4 4.4 0 3.3-0.7 5.1-0.8 1.9-2.2 2.7-1.3 0.8-3.3 0.8zm0-1.9q1 0 1.7-0.3 0.8-0.3 1.3-1 0.6-0.8 0.8-2.1 0.3-1.3 0.3-3.3 0-2.2-0.3-3.6-0.2-1.4-0.7-2.2-0.5-0.8-1.3-1.1-0.8-0.4-1.8-0.4-1.1 0-1.8 0.4-0.8 0.3-1.3 1.1-0.5 0.8-0.8 2.2-0.3 1.4-0.3 3.6 0 2 0.3 3.3 0.3 1.3 0.8 2.1 0.6 0.7 1.3 1 0.8 0.3 1.8 0.3zm17.4 1.6h-2.1v-14.8l-4.3 2.9-1-1.6 5.5-3.6h1.9zm14.6 0h-2.1v-14.9l-4.4 2.9-0.9-1.6 5.4-3.6h2zm11.7 0.3q-1.5 0-2.7-0.5-1.1-0.4-2-1.3-0.8-1-1.2-2.7-0.4-1.6-0.4-4.1 0-2.6 0.4-4.4 0.4-1.8 1.2-2.8 0.8-1.1 2-1.5 1.2-0.4 2.6-0.4 1.6 0 2.7 0.4 1.2 0.4 2 1.5 0.8 1 1.2 2.8 0.4 1.7 0.4 4.4 0 3.3-0.7 5.1-0.8 1.9-2.2 2.7-1.4 0.8-3.3 0.8zm0-1.9q1 0 1.7-0.3 0.8-0.3 1.3-1.1 0.5-0.7 0.8-2 0.3-1.3 0.3-3.3 0-2.2-0.3-3.6-0.2-1.4-0.7-2.2-0.5-0.8-1.3-1.2-0.8-0.3-1.8-0.3-1.1 0-1.9 0.3-0.7 0.4-1.3 1.2-0.5 0.8-0.7 2.2-0.3 1.4-0.3 3.6 0 2 0.3 3.3 0.3 1.3 0.8 2.1 0.5 0.7 1.3 1 0.8 0.3 1.8 0.3zm17.4 1.6h-2.1v-14.8l-4.4 2.9-0.9-1.6 5.4-3.7h2zm14.5 0h-2v-14.8l-4.4 2.9-1-1.6 5.5-3.6h1.9zm11.7 0.2q-1.4 0-2.6-0.4-1.2-0.4-2-1.4-0.8-0.9-1.2-2.6-0.5-1.7-0.5-4.1 0-2.7 0.5-4.4 0.4-1.8 1.2-2.8 0.8-1.1 2-1.5 1.1-0.5 2.6-0.5 1.5 0 2.7 0.5 1.2 0.4 2 1.5 0.8 1 1.2 2.8 0.4 1.7 0.4 4.4 0 3.2-0.7 5.1-0.8 1.9-2.2 2.7-1.4 0.7-3.4 0.7zm0-1.8q1.1 0 1.8-0.3 0.8-0.3 1.3-1.1 0.5-0.7 0.8-2 0.2-1.4 0.2-3.3 0-2.2-0.2-3.6-0.2-1.4-0.8-2.2-0.5-0.8-1.2-1.2-0.8-0.3-1.9-0.3-1 0-1.8 0.3-0.8 0.4-1.3 1.2-0.5 0.8-0.7 2.2-0.3 1.4-0.3 3.6 0 2 0.3 3.3 0.3 1.3 0.8 2 0.5 0.8 1.3 1.1 0.8 0.3 1.7 0.3zm17.5 1.6h-2.1v-14.9l-4.4 2.9-1-1.5 5.5-3.7h2zm11.7 0.3q-1.5 0-2.7-0.4-1.1-0.5-2-1.4-0.8-1-1.2-2.7-0.4-1.6-0.4-4.1 0-2.6 0.4-4.4 0.4-1.8 1.2-2.8 0.8-1 2-1.5 1.2-0.4 2.6-0.4 1.6 0 2.7 0.4 1.2 0.5 2 1.5 0.8 1 1.2 2.8 0.4 1.7 0.4 4.4 0 3.3-0.7 5.1-0.8 1.9-2.2 2.7-1.4 0.8-3.3 0.8zm0-1.9q1 0 1.7-0.3 0.8-0.3 1.3-1 0.5-0.8 0.8-2.1 0.3-1.3 0.3-3.3 0-2.2-0.3-3.6-0.2-1.4-0.7-2.2-0.5-0.8-1.3-1.1-0.8-0.4-1.8-0.4-1.1 0-1.9 0.4-0.7 0.3-1.3 1.1-0.5 0.8-0.7 2.2-0.3 1.4-0.3 3.6 0 2 0.3 3.3 0.3 1.3 0.8 2.1 0.5 0.7 1.3 1 0.8 0.3 1.8 0.3zm14.5 1.9q-1.5 0-2.6-0.4-1.2-0.5-2-1.4-0.8-1-1.3-2.7-0.4-1.6-0.4-4.1 0-2.6 0.4-4.4 0.5-1.8 1.3-2.8 0.8-1 1.9-1.5 1.2-0.4 2.7-0.4 1.5 0 2.7 0.4 1.2 0.5 1.9 1.5 0.9 1 1.3 2.8 0.4 1.7 0.4 4.4 0 3.3-0.8 5.1-0.7 1.9-2.1 2.7-1.4 0.8-3.4 0.8zm0-1.9q1 0 1.8-0.3 0.8-0.3 1.3-1 0.5-0.8 0.8-2.1 0.2-1.3 0.2-3.3 0-2.2-0.2-3.6-0.3-1.4-0.8-2.2-0.5-0.8-1.3-1.1-0.7-0.4-1.8-0.4-1 0-1.8 0.4-0.8 0.3-1.3 1.1-0.5 0.8-0.8 2.2-0.2 1.4-0.2 3.6 0 2 0.2 3.3 0.3 1.3 0.9 2.1 0.5 0.7 1.3 1 0.7 0.3 1.7 0.3zm14.6 1.9q-1.5 0-2.7-0.4-1.1-0.5-1.9-1.4-0.9-1-1.3-2.7-0.4-1.6-0.4-4.1 0-2.6 0.4-4.4 0.4-1.8 1.2-2.8 0.9-1 2-1.5 1.2-0.4 2.7-0.4 1.5 0 2.7 0.4 1.1 0.5 1.9 1.5 0.8 1 1.2 2.8 0.4 1.7 0.4 4.4 0 3.3-0.7 5.1-0.8 1.9-2.2 2.7-1.3 0.8-3.3 0.8zm0-1.9q1 0 1.7-0.3 0.8-0.3 1.3-1 0.6-0.8 0.8-2.1 0.3-1.3 0.3-3.3 0-2.2-0.3-3.6-0.2-1.4-0.7-2.2-0.5-0.8-1.3-1.1-0.8-0.4-1.8-0.4-1.1 0-1.8 0.4-0.8 0.3-1.3 1.1-0.5 0.8-0.8 2.2-0.3 1.4-0.3 3.6 0 2 0.3 3.3 0.3 1.3 0.8 2.1 0.6 0.7 1.3 1 0.8 0.3 1.8 0.3zm14.5 1.9q-1.4 0-2.6-0.4-1.2-0.5-2-1.4-0.8-1-1.2-2.7-0.5-1.6-0.5-4.1 0-2.6 0.5-4.4 0.4-1.8 1.2-2.8 0.8-1 2-1.5 1.1-0.4 2.6-0.4 1.5 0 2.7 0.4 1.2 0.5 2 1.5 0.8 1 1.2 2.8 0.4 1.7 0.4 4.4 0 3.3-0.7 5.1-0.8 1.9-2.2 2.7-1.4 0.8-3.4 0.8zm0-1.9q1.1 0 1.8-0.3 0.8-0.3 1.3-1 0.5-0.8 0.8-2.1 0.2-1.3 0.2-3.3 0-2.2-0.2-3.6-0.2-1.4-0.8-2.2-0.5-0.8-1.2-1.1-0.8-0.4-1.9-0.4-1 0-1.8 0.4-0.8 0.3-1.3 1.1-0.5 0.8-0.7 2.2-0.3 1.4-0.3 3.6 0 2 0.3 3.3 0.3 1.3 0.8 2.1 0.5 0.7 1.3 1 0.8 0.3 1.7 0.3zm17.5 1.6h-2.1v-14.8l-4.4 2.9-0.9-1.6 5.4-3.6h2zm14.5 0h-2.1v-14.9l-4.3 2.9-1-1.6 5.5-3.6h1.9zm11.7 0.3q-1.5 0-2.6-0.5-1.2-0.4-2-1.3-0.8-1-1.3-2.7-0.4-1.6-0.4-4.1 0-2.6 0.4-4.4 0.5-1.8 1.3-2.8 0.8-1.1 1.9-1.5 1.2-0.4 2.7-0.4 1.5 0 2.7 0.4 1.2 0.4 1.9 1.5 0.9 1 1.3 2.8 0.4 1.7 0.4 4.4 0 3.3-0.8 5.1-0.7 1.9-2.1 2.7-1.4 0.8-3.4 0.8zm0-1.9q1 0 1.8-0.3 0.8-0.3 1.3-1.1 0.5-0.7 0.8-2 0.2-1.3 0.2-3.3 0-2.2-0.2-3.6-0.3-1.4-0.8-2.2-0.5-0.8-1.3-1.2-0.7-0.3-1.8-0.3-1 0-1.8 0.3-0.8 0.4-1.3 1.2-0.5 0.8-0.8 2.2-0.2 1.4-0.2 3.6 0 2 0.2 3.3 0.3 1.3 0.9 2.1 0.5 0.7 1.3 1 0.7 0.3 1.7 0.3zm14.6 1.9q-1.5 0-2.7-0.5-1.1-0.4-1.9-1.3-0.9-1-1.3-2.7-0.4-1.6-0.4-4.1 0-2.6 0.4-4.4 0.4-1.8 1.2-2.8 0.9-1.1 2-1.5 1.2-0.4 2.7-0.4 1.5 0 2.7 0.4 1.1 0.4 1.9 1.5 0.8 1 1.2 2.8 0.4 1.7 0.4 4.4 0 3.3-0.7 5.1-0.8 1.9-2.2 2.7-1.3 0.8-3.3 0.8zm0-1.9q1 0 1.7-0.3 0.8-0.3 1.3-1.1 0.6-0.7 0.8-2 0.3-1.3 0.3-3.3 0-2.2-0.3-3.6-0.2-1.4-0.7-2.2-0.5-0.8-1.3-1.2-0.8-0.3-1.8-0.3-1.1 0-1.8 0.3-0.8 0.4-1.3 1.2-0.5 0.8-0.8 2.2-0.3 1.4-0.3 3.6 0 2 0.3 3.3 0.3 1.3 0.8 2.1 0.6 0.7 1.3 1 0.8 0.3 1.8 0.3zm14.5 1.9q-1.4 0-2.6-0.5-1.2-0.4-2-1.3-0.8-1-1.2-2.7-0.5-1.6-0.5-4.1 0-2.6 0.5-4.4 0.4-1.8 1.2-2.8 0.8-1.1 2-1.5 1.1-0.4 2.6-0.4 1.5 0 2.7 0.4 1.2 0.4 2 1.5 0.8 1 1.2 2.8 0.4 1.7 0.4 4.4 0 3.3-0.7 5.1-0.8 1.9-2.2 2.7-1.4 0.8-3.4 0.8zm0-1.9q1.1 0 1.8-0.3 0.8-0.3 1.3-1.1 0.5-0.7 0.8-2 0.2-1.3 0.2-3.3 0-2.2-0.2-3.6-0.2-1.4-0.8-2.2-0.5-0.8-1.2-1.2-0.8-0.3-1.9-0.3-1 0-1.8 0.3-0.8 0.4-1.3 1.2-0.5 0.8-0.7 2.2-0.3 1.4-0.3 3.6 0 2 0.3 3.3 0.3 1.3 0.8 2.1 0.5 0.7 1.3 1 0.8 0.3 1.7 0.3zm14.6 1.9q-1.5 0-2.7-0.5-1.1-0.4-1.9-1.3-0.8-1-1.3-2.7-0.4-1.6-0.4-4.1 0-2.6 0.4-4.4 0.4-1.8 1.2-2.8 0.9-1.1 2-1.5 1.2-0.4 2.7-0.4 1.5 0 2.7 0.4 1.1 0.4 1.9 1.5 0.8 1 1.3 2.8 0.4 1.7 0.4 4.4 0 3.3-0.8 5.1-0.7 1.9-2.1 2.7-1.4 0.8-3.4 0.8zm0-1.9q1 0 1.8-0.3 0.7-0.3 1.3-1.1 0.5-0.7 0.7-2 0.3-1.3 0.3-3.3 0-2.2-0.3-3.6-0.2-1.4-0.7-2.2-0.5-0.8-1.3-1.2-0.7-0.3-1.8-0.3-1 0-1.8 0.3-0.8 0.4-1.3 1.2-0.5 0.8-0.8 2.2-0.2 1.4-0.2 3.6 0 2 0.2 3.3 0.3 1.3 0.8 2.1 0.6 0.7 1.3 1 0.8 0.3 1.8 0.3zm17.4 1.6h-2.1v-14.8l-4.3 2.9-1-1.6 5.5-3.7h1.9zm11.7 0.3q-1.5 0-2.6-0.4-1.2-0.4-2-1.4-0.8-1-1.3-2.6-0.4-1.7-0.4-4.2 0-2.6 0.4-4.4 0.5-1.7 1.3-2.8 0.8-1 1.9-1.5 1.2-0.4 2.7-0.4 1.5 0 2.7 0.4 1.2 0.5 1.9 1.5 0.9 1.1 1.3 2.8 0.4 1.8 0.4 4.4 0 3.3-0.8 5.2-0.7 1.8-2.1 2.6-1.4 0.8-3.4 0.8zm0-1.8q1 0 1.8-0.4 0.8-0.3 1.3-1 0.5-0.8 0.8-2.1 0.2-1.3 0.2-3.3 0-2.1-0.2-3.5-0.3-1.4-0.8-2.3-0.5-0.8-1.3-1.1-0.7-0.4-1.8-0.4-1 0-1.8 0.4-0.8 0.3-1.3 1.1-0.5 0.8-0.8 2.3-0.2 1.4-0.2 3.5 0 2 0.2 3.3 0.3 1.3 0.9 2.1 0.5 0.7 1.3 1 0.7 0.4 1.7 0.4zm17.4 1.5h-2v-14.8l-4.4 2.9-1-1.6 5.5-3.6h1.9zm14.6 0h-2.1v-14.9l-4.3 2.9-1-1.5 5.5-3.7h1.9zm14.6 0h-2.1v-14.8l-4.4 2.9-0.9-1.6 5.4-3.6h2zm11.7 0.2q-1.5 0-2.7-0.4-1.1-0.4-2-1.4-0.8-1-1.2-2.6-0.4-1.7-0.4-4.2 0-2.6 0.4-4.4 0.4-1.7 1.2-2.8 0.8-1 2-1.4 1.2-0.5 2.6-0.5 1.6 0 2.7 0.5 1.2 0.4 2 1.4 0.8 1.1 1.2 2.8 0.4 1.8 0.4 4.4 0 3.3-0.7 5.2-0.8 1.9-2.2 2.6-1.4 0.8-3.3 0.8zm0-1.8q1 0 1.7-0.3 0.8-0.3 1.3-1.1 0.5-0.8 0.8-2.1 0.3-1.3 0.3-3.3 0-2.1-0.3-3.5-0.2-1.4-0.7-2.2-0.5-0.9-1.3-1.2-0.8-0.3-1.8-0.3-1.1 0-1.9 0.3-0.7 0.3-1.3 1.1-0.5 0.8-0.7 2.3-0.3 1.4-0.3 3.6 0 1.9 0.3 3.3 0.3 1.3 0.8 2 0.5 0.8 1.3 1.1 0.8 0.3 1.8 0.3zm17.4 1.6h-2.1v-14.9l-4.4 2.9-0.9-1.6 5.4-3.6h2zm14.5 0h-2v-14.8l-4.4 2.9-1-1.6 5.5-3.7h1.9zm14.6 0h-2.1v-14.8l-4.3 2.9-1-1.6 5.5-3.6h1.9zm11.7 0.2q-1.5 0-2.7-0.4-1.1-0.4-1.9-1.4-0.8-0.9-1.3-2.6-0.4-1.7-0.4-4.1 0-2.7 0.4-4.4 0.4-1.8 1.2-2.8 0.9-1.1 2-1.5 1.2-0.5 2.7-0.5 1.5 0 2.7 0.5 1.1 0.4 1.9 1.5 0.8 1 1.3 2.8 0.4 1.7 0.4 4.4 0 3.2-0.8 5.1-0.7 1.9-2.1 2.7-1.4 0.7-3.4 0.7zm0-1.8q1 0 1.8-0.3 0.7-0.3 1.3-1.1 0.5-0.7 0.7-2 0.3-1.4 0.3-3.3 0-2.2-0.3-3.6-0.2-1.4-0.7-2.2-0.5-0.8-1.3-1.2-0.7-0.3-1.8-0.3-1 0-1.8 0.3-0.8 0.4-1.3 1.2-0.5 0.8-0.8 2.2-0.2 1.4-0.2 3.6 0 2 0.2 3.3 0.3 1.3 0.8 2 0.6 0.8 1.3 1.1 0.8 0.3 1.8 0.3zm17.4 1.6h-2.1v-14.9l-4.3 2.9-1-1.5 5.5-3.7h1.9zm14.6 0h-2.1v-14.8l-4.4 2.9-0.9-1.6 5.4-3.6h2zm11.7 0.2q-1.5 0-2.7-0.4-1.1-0.4-1.9-1.4-0.9-1-1.3-2.6-0.4-1.7-0.4-4.2 0-2.6 0.4-4.4 0.4-1.7 1.2-2.8 0.9-1 2-1.4 1.2-0.5 2.7-0.5 1.5 0 2.7 0.5 1.1 0.4 1.9 1.4 0.8 1.1 1.2 2.8 0.4 1.8 0.4 4.4 0 3.3-0.7 5.2-0.8 1.9-2.2 2.6-1.3 0.8-3.3 0.8zm0-1.8q1 0 1.7-0.3 0.8-0.3 1.3-1.1 0.6-0.8 0.8-2.1 0.3-1.3 0.3-3.3 0-2.1-0.3-3.5-0.2-1.4-0.7-2.2-0.5-0.9-1.3-1.2-0.8-0.3-1.8-0.3-1.1 0-1.8 0.3-0.8 0.3-1.3 1.1-0.5 0.8-0.8 2.3-0.3 1.4-0.3 3.6 0 1.9 0.3 3.3 0.3 1.3 0.8 2 0.6 0.8 1.3 1.1 0.8 0.3 1.8 0.3zm14.5 1.8q-1.4 0-2.6-0.4-1.2-0.4-2-1.4-0.8-1-1.2-2.6-0.5-1.7-0.5-4.2 0-2.6 0.5-4.4 0.4-1.7 1.2-2.8 0.8-1 2-1.4 1.1-0.5 2.6-0.5 1.5 0 2.7 0.5 1.2 0.4 2 1.4 0.8 1.1 1.2 2.8 0.4 1.8 0.4 4.4 0 3.3-0.7 5.2-0.8 1.9-2.2 2.6-1.4 0.8-3.4 0.8zm0-1.8q1.1 0 1.8-0.3 0.8-0.3 1.3-1.1 0.5-0.8 0.8-2.1 0.2-1.3 0.2-3.3 0-2.1-0.2-3.5-0.2-1.4-0.8-2.2-0.5-0.9-1.2-1.2-0.8-0.3-1.9-0.3-1 0-1.8 0.3-0.8 0.3-1.3 1.1-0.5 0.8-0.7 2.3-0.3 1.4-0.3 3.6 0 1.9 0.3 3.3 0.3 1.3 0.8 2 0.5 0.8 1.3 1.1 0.8 0.3 1.7 0.3zm14.6 1.8q-1.5 0-2.7-0.4-1.1-0.4-1.9-1.4-0.8-1-1.3-2.6-0.4-1.7-0.4-4.2 0-2.6 0.4-4.4 0.4-1.7 1.2-2.8 0.9-1 2-1.4 1.2-0.5 2.7-0.5 1.5 0 2.7 0.5 1.1 0.4 1.9 1.4 0.8 1.1 1.2 2.8 0.5 1.8 0.5 4.4 0 3.3-0.8 5.2-0.7 1.9-2.1 2.6-1.4 0.8-3.4 0.8zm0-1.8q1 0 1.8-0.3 0.7-0.3 1.3-1.1 0.5-0.8 0.7-2.1 0.3-1.3 0.3-3.3 0-2.1-0.3-3.5-0.2-1.4-0.7-2.2-0.5-0.9-1.3-1.2-0.7-0.3-1.8-0.3-1 0-1.8 0.3-0.8 0.3-1.3 1.1-0.5 0.8-0.8 2.3-0.2 1.4-0.2 3.6 0 1.9 0.2 3.3 0.3 1.3 0.8 2 0.6 0.8 1.3 1.1 0.8 0.3 1.8 0.3zm14.6 1.8q-1.5 0-2.7-0.4-1.1-0.4-2-1.4-0.8-1-1.2-2.6-0.4-1.7-0.4-4.2 0-2.6 0.4-4.4 0.4-1.7 1.2-2.8 0.8-1 2-1.4 1.2-0.5 2.6-0.5 1.6 0 2.7 0.5 1.2 0.4 2 1.4 0.8 1.1 1.2 2.8 0.4 1.8 0.4 4.4 0 3.3-0.7 5.2-0.8 1.9-2.2 2.6-1.4 0.8-3.3 0.8zm0-1.8q1 0 1.7-0.3 0.8-0.3 1.3-1.1 0.5-0.8 0.8-2.1 0.3-1.3 0.3-3.3 0-2.1-0.3-3.5-0.2-1.4-0.7-2.2-0.5-0.9-1.3-1.2-0.8-0.3-1.8-0.3-1.1 0-1.9 0.3-0.7 0.3-1.3 1.1-0.5 0.8-0.7 2.3-0.3 1.4-0.3 3.6 0 1.9 0.3 3.3 0.3 1.3 0.8 2 0.5 0.8 1.3 1.1 0.8 0.3 1.8 0.3zm17.4 1.6h-2.1v-14.9l-4.4 2.9-0.9-1.6 5.4-3.6h2zm11.7 0.3q-1.5 0-2.7-0.5-1.1-0.4-1.9-1.3-0.9-1-1.3-2.7-0.4-1.6-0.4-4.1 0-2.6 0.4-4.4 0.4-1.8 1.2-2.8 0.9-1.1 2-1.5 1.2-0.4 2.7-0.4 1.5 0 2.7 0.4 1.1 0.4 1.9 1.5 0.8 1 1.2 2.8 0.4 1.7 0.4 4.4 0 3.3-0.7 5.1-0.8 1.9-2.2 2.7-1.3 0.8-3.3 0.8zm0-1.9q1 0 1.7-0.3 0.8-0.3 1.3-1.1 0.6-0.7 0.8-2 0.3-1.3 0.3-3.3 0-2.2-0.3-3.6-0.2-1.4-0.7-2.2-0.5-0.8-1.3-1.2-0.8-0.3-1.8-0.3-1.1 0-1.8 0.3-0.8 0.4-1.3 1.2-0.5 0.8-0.8 2.2-0.3 1.4-0.3 3.6 0 2 0.3 3.3 0.3 1.3 0.8 2.1 0.6 0.7 1.3 1 0.8 0.3 1.8 0.3zm17.4 1.6h-2.1v-14.8l-4.3 2.9-1-1.6 5.4-3.7h2zm14.6 0h-2.1v-14.8l-4.4 2.9-1-1.6 5.5-3.6h2zm14.5 0h-2.1v-14.9l-4.3 2.9-1-1.5 5.5-3.7h1.9zm11.7 0.3q-1.5 0-2.6-0.4-1.2-0.5-2-1.4-0.8-1-1.3-2.7-0.4-1.6-0.4-4.1 0-2.6 0.4-4.4 0.5-1.8 1.3-2.8 0.8-1 1.9-1.5 1.2-0.4 2.7-0.4 1.5 0 2.7 0.4 1.2 0.5 1.9 1.5 0.9 1 1.3 2.8 0.4 1.7 0.4 4.4 0 3.3-0.8 5.1-0.7 1.9-2.1 2.7-1.4 0.8-3.4 0.8zm0-1.9q1 0 1.8-0.3 0.8-0.3 1.3-1 0.5-0.8 0.8-2.1 0.2-1.3 0.2-3.3 0-2.2-0.2-3.6-0.3-1.4-0.8-2.2-0.5-0.8-1.3-1.1-0.7-0.4-1.8-0.4-1 0-1.8 0.4-0.8 0.3-1.3 1.1-0.5 0.8-0.8 2.2-0.2 1.4-0.2 3.6 0 2 0.2 3.3 0.3 1.3 0.9 2.1 0.5 0.7 1.3 1 0.7 0.3 1.7 0.3zm14.6 1.9q-1.5 0-2.7-0.4-1.1-0.5-1.9-1.4-0.9-1-1.3-2.7-0.4-1.6-0.4-4.1 0-2.6 0.4-4.4 0.4-1.8 1.2-2.8 0.9-1 2-1.5 1.2-0.4 2.7-0.4 1.5 0 2.7 0.4 1.1 0.5 1.9 1.5 0.8 1 1.2 2.8 0.4 1.7 0.4 4.4 0 3.3-0.7 5.1-0.8 1.9-2.2 2.7-1.3 0.8-3.3 0.8zm0-1.9q1 0 1.7-0.3 0.8-0.3 1.3-1 0.6-0.8 0.8-2.1 0.3-1.3 0.3-3.3 0-2.2-0.3-3.6-0.2-1.4-0.7-2.2-0.5-0.8-1.3-1.1-0.8-0.4-1.8-0.4-1.1 0-1.8 0.4-0.8 0.3-1.3 1.1-0.5 0.8-0.8 2.2-0.3 1.4-0.3 3.6 0 2 0.3 3.3 0.3 1.3 0.8 2.1 0.6 0.7 1.3 1 0.8 0.3 1.8 0.3zm17.4 1.6h-2.1v-14.8l-4.3 2.9-1-1.6 5.4-3.6h2zm11.7 0.2q-1.5 0-2.7-0.4-1.1-0.4-1.9-1.4-0.8-1-1.3-2.6-0.4-1.7-0.4-4.2 0-2.6 0.4-4.4 0.4-1.7 1.2-2.8 0.9-1 2-1.4 1.2-0.5 2.7-0.5 1.5 0 2.7 0.5 1.1 0.4 1.9 1.4 0.8 1.1 1.2 2.8 0.5 1.8 0.5 4.4 0 3.3-0.8 5.2-0.7 1.9-2.1 2.6-1.4 0.8-3.4 0.8zm0-1.8q1 0 1.8-0.3 0.7-0.3 1.3-1.1 0.5-0.8 0.7-2.1 0.3-1.3 0.3-3.3 0-2.1-0.3-3.5-0.2-1.4-0.7-2.2-0.5-0.9-1.3-1.2-0.7-0.3-1.8-0.3-1 0-1.8 0.3-0.8 0.3-1.3 1.1-0.5 0.8-0.8 2.3-0.2 1.4-0.2 3.6 0 1.9 0.2 3.3 0.3 1.3 0.8 2 0.6 0.8 1.3 1.1 0.8 0.3 1.8 0.3zm14.6 1.8q-1.5 0-2.7-0.4-1.1-0.4-2-1.4-0.8-1-1.2-2.6-0.4-1.7-0.4-4.2 0-2.6 0.4-4.4 0.4-1.7 1.2-2.8 0.8-1 2-1.4 1.2-0.5 2.6-0.5 1.6 0 2.7 0.5 1.2 0.4 2 1.4 0.8 1.1 1.2 2.8 0.4 1.8 0.4 4.4 0 3.3-0.7 5.2-0.8 1.9-2.2 2.6-1.4 0.8-3.3 0.8zm0-1.8q1 0 1.7-0.3 0.8-0.3 1.3-1.1 0.5-0.8 0.8-2.1 0.3-1.3 0.3-3.3 0-2.1-0.3-3.5-0.2-1.4-0.7-2.2-0.5-0.9-1.3-1.2-0.8-0.3-1.8-0.3-1.1 0-1.9 0.3-0.7 0.3-1.3 1.1-0.5 0.8-0.7 2.3-0.3 1.4-0.3 3.6 0 1.9 0.3 3.3 0.3 1.3 0.8 2 0.5 0.8 1.3 1.1 0.8 0.3 1.8 0.3zm17.4 1.6h-2.1v-14.9l-4.4 2.9-0.9-1.6 5.4-3.6h2zm14.5 0h-2v-14.8l-4.4 2.9-1-1.6 5.5-3.7h1.9zm11.7 0.3q-1.4 0-2.6-0.4-1.2-0.4-2-1.4-0.8-1-1.2-2.6-0.5-1.7-0.5-4.2 0-2.6 0.5-4.4 0.4-1.7 1.2-2.8 0.8-1 2-1.5 1.1-0.4 2.6-0.4 1.5 0 2.7 0.4 1.2 0.5 2 1.5 0.8 1.1 1.2 2.8 0.4 1.8 0.4 4.4 0 3.3-0.7 5.2-0.8 1.8-2.2 2.6-1.4 0.8-3.4 0.8zm0-1.8q1.1 0 1.8-0.4 0.8-0.3 1.3-1 0.5-0.8 0.8-2.1 0.2-1.3 0.2-3.3 0-2.1-0.2-3.5-0.2-1.4-0.8-2.3-0.5-0.8-1.2-1.1-0.8-0.4-1.9-0.4-1 0-1.8 0.4-0.8 0.3-1.3 1.1-0.5 0.8-0.7 2.3-0.3 1.4-0.3 3.5 0 2 0.3 3.3 0.3 1.3 0.8 2.1 0.5 0.7 1.3 1 0.8 0.4 1.7 0.4zm17.5 1.5h-2.1v-14.8l-4.4 2.9-1-1.6 5.5-3.6h2zm11.7 0.2q-1.5 0-2.7-0.4-1.1-0.4-2-1.4-0.8-0.9-1.2-2.6-0.4-1.7-0.4-4.1 0-2.7 0.4-4.4 0.4-1.8 1.2-2.8 0.8-1.1 2-1.5 1.2-0.5 2.6-0.5 1.6 0 2.7 0.5 1.2 0.4 2 1.5 0.8 1 1.2 2.8 0.4 1.7 0.4 4.4 0 3.2-0.7 5.1-0.8 1.9-2.2 2.7-1.4 0.7-3.3 0.7zm0-1.8q1 0 1.7-0.3 0.8-0.3 1.3-1.1 0.5-0.7 0.8-2 0.3-1.4 0.3-3.3 0-2.2-0.3-3.6-0.2-1.4-0.7-2.2-0.5-0.8-1.3-1.2-0.8-0.3-1.8-0.3-1.1 0-1.9 0.3-0.7 0.4-1.3 1.2-0.5 0.8-0.7 2.2-0.3 1.4-0.3 3.6 0 2 0.3 3.3 0.3 1.3 0.8 2 0.5 0.8 1.3 1.1 0.8 0.3 1.8 0.3zm14.5 1.8q-1.5 0-2.6-0.4-1.2-0.4-2-1.4-0.8-0.9-1.3-2.6-0.4-1.7-0.4-4.1 0-2.7 0.4-4.4 0.5-1.8 1.3-2.8 0.8-1.1 1.9-1.5 1.2-0.5 2.7-0.5 1.5 0 2.7 0.5 1.2 0.4 1.9 1.5 0.9 1 1.3 2.8 0.4 1.7 0.4 4.4 0 3.2-0.8 5.1-0.7 1.9-2.1 2.7-1.4 0.7-3.4 0.7zm0-1.8q1 0 1.8-0.3 0.8-0.3 1.3-1.1 0.5-0.7 0.8-2 0.2-1.4 0.2-3.3 0-2.2-0.2-3.6-0.3-1.4-0.8-2.2-0.5-0.8-1.3-1.2-0.7-0.3-1.8-0.3-1 0-1.8 0.3-0.8 0.4-1.3 1.2-0.5 0.8-0.8 2.2-0.2 1.4-0.2 3.6 0 2 0.2 3.3 0.3 1.3 0.9 2 0.5 0.8 1.3 1.1 0.7 0.3 1.7 0.3zm17.4 1.6h-2v-14.9l-4.4 2.9-1-1.5 5.5-3.7h1.9zm11.7 0.3q-1.4 0-2.6-0.4-1.2-0.5-2-1.4-0.8-1-1.2-2.7-0.5-1.6-0.5-4.1 0-2.6 0.5-4.4 0.4-1.8 1.2-2.8 0.8-1 2-1.5 1.1-0.4 2.6-0.4 1.5 0 2.7 0.4 1.2 0.5 2 1.5 0.8 1 1.2 2.8 0.4 1.7 0.4 4.4 0 3.3-0.7 5.1-0.8 1.9-2.2 2.7-1.4 0.8-3.4 0.8zm0-1.9q1.1 0 1.8-0.3 0.8-0.3 1.3-1 0.5-0.8 0.8-2.1 0.2-1.3 0.2-3.3 0-2.2-0.2-3.6-0.2-1.4-0.8-2.2-0.5-0.8-1.2-1.1-0.8-0.4-1.9-0.4-1 0-1.8 0.4-0.8 0.3-1.3 1.1-0.5 0.8-0.7 2.2-0.3 1.4-0.3 3.6 0 2 0.3 3.3 0.3 1.3 0.8 2.1 0.5 0.7 1.3 1 0.8 0.3 1.7 0.3zm17.5 1.6h-2.1v-14.8l-4.4 2.9-1-1.6 5.5-3.6h2zm14.5 0h-2.1v-14.9l-4.3 2.9-1-1.6 5.5-3.6h1.9zm14.6 0h-2.1v-14.8l-4.4 2.9-0.9-1.6 5.4-3.7h2zm14.5 0h-2v-14.8l-4.4 2.9-1-1.6 5.5-3.6h1.9zm11.7 0.2q-1.4 0-2.6-0.4-1.2-0.4-2-1.4-0.8-0.9-1.2-2.6-0.5-1.7-0.5-4.1 0-2.7 0.5-4.4 0.4-1.8 1.2-2.8 0.8-1.1 2-1.5 1.1-0.5 2.6-0.5 1.5 0 2.7 0.5 1.2 0.4 2 1.5 0.8 1 1.2 2.8 0.4 1.7 0.4 4.4 0 3.2-0.7 5.1-0.8 1.9-2.2 2.7-1.4 0.7-3.4 0.7zm0-1.8q1.1 0 1.8-0.3 0.8-0.3 1.3-1.1 0.5-0.7 0.8-2 0.2-1.4 0.2-3.3 0-2.2-0.2-3.6-0.2-1.4-0.8-2.2-0.5-0.8-1.2-1.2-0.8-0.3-1.9-0.3-1 0-1.8 0.3-0.8 0.4-1.3 1.2-0.5 0.8-0.7 2.2-0.3 1.4-0.3 3.6 0 2 0.3 3.3 0.3 1.3 0.8 2 0.5 0.8 1.3 1.1 0.8 0.3 1.7 0.3zm17.5 1.6h-2.1v-14.9l-4.4 2.9-1-1.5 5.5-3.7h2zm11.7 0.3q-1.5 0-2.7-0.4-1.1-0.5-2-1.4-0.8-1-1.2-2.7-0.4-1.6-0.4-4.1 0-2.6 0.4-4.4 0.4-1.8 1.2-2.8 0.8-1 2-1.5 1.2-0.4 2.6-0.4 1.6 0 2.7 0.4 1.2 0.5 2 1.5 0.8 1 1.2 2.8 0.4 1.7 0.4 4.4 0 3.3-0.7 5.1-0.8 1.9-2.2 2.7-1.4 0.8-3.3 0.8zm0-1.9q1 0 1.7-0.3 0.8-0.3 1.3-1 0.5-0.8 0.8-2.1 0.3-1.3 0.3-3.3 0-2.2-0.3-3.6-0.2-1.4-0.7-2.2-0.5-0.8-1.3-1.1-0.8-0.4-1.8-0.4-1.1 0-1.9 0.4-0.7 0.3-1.3 1.1-0.5 0.8-0.7 2.2-0.3 1.4-0.3 3.6 0 2 0.3 3.3 0.3 1.3 0.8 2.1 0.5 0.7 1.3 1 0.8 0.3 1.8 0.3zm14.5 1.9q-1.5 0-2.6-0.4-1.2-0.5-2-1.4-0.8-1-1.3-2.7-0.4-1.6-0.4-4.1 0-2.6 0.4-4.4 0.5-1.8 1.3-2.8 0.8-1 1.9-1.5 1.2-0.4 2.7-0.4 1.5 0 2.7 0.4 1.2 0.5 1.9 1.5 0.9 1 1.3 2.8 0.4 1.7 0.4 4.4 0 3.3-0.8 5.1-0.7 1.9-2.1 2.7-1.4 0.8-3.4 0.8zm0-1.9q1 0 1.8-0.3 0.8-0.3 1.3-1 0.5-0.8 0.8-2.1 0.2-1.3 0.2-3.3 0-2.2-0.2-3.6-0.3-1.4-0.8-2.2-0.5-0.8-1.3-1.1-0.7-0.4-1.8-0.4-1 0-1.8 0.4-0.8 0.3-1.3 1.1-0.5 0.8-0.8 2.2-0.2 1.4-0.2 3.6 0 2 0.2 3.3 0.3 1.3 0.9 2.1 0.5 0.7 1.3 1 0.7 0.3 1.7 0.3zm17.4 1.6h-2v-14.8l-4.4 2.9-1-1.6 5.5-3.6h1.9zm14.6 0h-2.1v-14.9l-4.3 2.9-1-1.6 5.4-3.6h2zm11.7 0.3q-1.5 0-2.7-0.5-1.1-0.4-1.9-1.3-0.8-1-1.3-2.7-0.4-1.6-0.4-4.1 0-2.6 0.4-4.4 0.4-1.8 1.2-2.8 0.9-1.1 2-1.5 1.2-0.4 2.7-0.4 1.5 0 2.7 0.4 1.1 0.4 1.9 1.5 0.8 1 1.2 2.8 0.5 1.7 0.5 4.4 0 3.3-0.8 5.1-0.7 1.9-2.1 2.7-1.4 0.8-3.4 0.8zm0-1.9q1 0 1.8-0.3 0.7-0.3 1.3-1.1 0.5-0.7 0.7-2 0.3-1.3 0.3-3.3 0-2.2-0.3-3.6-0.2-1.4-0.7-2.2-0.5-0.8-1.3-1.2-0.7-0.3-1.8-0.3-1 0-1.8 0.3-0.8 0.4-1.3 1.2-0.5 0.8-0.8 2.2-0.2 1.4-0.2 3.6 0 2 0.2 3.3 0.3 1.3 0.8 2.1 0.6 0.7 1.3 1 0.8 0.3 1.8 0.3zm17.4 1.6h-2.1v-14.8l-4.3 2.9-1-1.6 5.5-3.7h1.9zm14.6 0h-2.1v-14.8l-4.4 2.9-0.9-1.6 5.4-3.6h2zm11.7 0.2q-1.5 0-2.7-0.4-1.1-0.4-1.9-1.4-0.9-0.9-1.3-2.6-0.4-1.7-0.4-4.1 0-2.7 0.4-4.4 0.4-1.8 1.2-2.8 0.9-1.1 2-1.5 1.2-0.5 2.7-0.5 1.5 0 2.7 0.5 1.1 0.4 1.9 1.5 0.8 1 1.2 2.8 0.4 1.7 0.4 4.4 0 3.2-0.7 5.1-0.8 1.9-2.2 2.7-1.3 0.7-3.3 0.7zm0-1.8q1 0 1.7-0.3 0.8-0.3 1.3-1.1 0.6-0.7 0.8-2 0.3-1.4 0.3-3.3 0-2.2-0.3-3.6-0.2-1.4-0.7-2.2-0.5-0.8-1.3-1.2-0.8-0.3-1.8-0.3-1.1 0-1.8 0.3-0.8 0.4-1.3 1.2-0.5 0.8-0.8 2.2-0.3 1.4-0.3 3.6 0 2 0.3 3.3 0.3 1.3 0.8 2 0.6 0.8 1.3 1.1 0.8 0.3 1.8 0.3zm17.4 1.6h-2.1v-14.9l-4.3 2.9-1-1.5 5.4-3.7h2zm11.7 0.3q-1.5 0-2.7-0.4-1.1-0.5-1.9-1.4-0.8-1-1.3-2.7-0.4-1.6-0.4-4.1 0-2.6 0.4-4.4 0.4-1.8 1.2-2.8 0.9-1 2-1.5 1.2-0.4 2.7-0.4 1.5 0 2.7 0.4 1.1 0.5 1.9 1.5 0.8 1 1.2 2.8 0.5 1.7 0.5 4.4 0 3.3-0.8 5.1-0.7 1.9-2.1 2.7-1.4 0.8-3.4 0.8zm0-1.9q1 0 1.8-0.3 0.7-0.3 1.3-1 0.5-0.8 0.7-2.1 0.3-1.3 0.3-3.3 0-2.2-0.3-3.6-0.2-1.4-0.7-2.2-0.5-0.8-1.3-1.1-0.7-0.4-1.8-0.4-1 0-1.8 0.4-0.8 0.3-1.3 1.1-0.5 0.8-0.8 2.2-0.2 1.4-0.2 3.6 0 2 0.2 3.3 0.3 1.3 0.8 2.1 0.6 0.7 1.3 1 0.8 0.3 1.8 0.3zm17.4 1.6h-2.1v-14.8l-4.3 2.9-1-1.6 5.5-3.6h1.9zm14.6 0h-2.1v-14.9l-4.4 2.9-0.9-1.6 5.4-3.6h2zm11.7 0.3q-1.5 0-2.7-0.5-1.1-0.4-1.9-1.3-0.9-1-1.3-2.7-0.4-1.6-0.4-4.1 0-2.6 0.4-4.4 0.4-1.8 1.2-2.8 0.9-1.1 2-1.5 1.2-0.4 2.7-0.4 1.5 0 2.7 0.4 1.1 0.4 1.9 1.5 0.8 1 1.2 2.8 0.4 1.7 0.4 4.4 0 3.3-0.7 5.1-0.8 1.9-2.2 2.7-1.3 0.8-3.3 0.8zm0-1.9q1 0 1.7-0.3 0.8-0.3 1.3-1.1 0.6-0.7 0.8-2 0.3-1.3 0.3-3.3 0-2.2-0.3-3.6-0.2-1.4-0.7-2.2-0.5-0.8-1.3-1.2-0.8-0.3-1.8-0.3-1.1 0-1.8 0.3-0.8 0.4-1.3 1.2-0.5 0.8-0.8 2.2-0.3 1.4-0.3 3.6 0 2 0.3 3.3 0.3 1.3 0.8 2.1 0.6 0.7 1.3 1 0.8 0.3 1.8 0.3zm17.4 1.6h-2.1v-14.8l-4.3 2.9-1-1.6 5.4-3.7h2zm11.7 0.3q-1.5 0-2.7-0.4-1.1-0.4-1.9-1.4-0.8-1-1.3-2.6-0.4-1.7-0.4-4.2 0-2.6 0.4-4.4 0.4-1.7 1.2-2.8 0.9-1 2-1.5 1.2-0.4 2.7-0.4 1.5 0 2.7 0.4 1.1 0.5 1.9 1.5 0.8 1.1 1.2 2.8 0.5 1.8 0.5 4.4 0 3.3-0.8 5.2-0.7 1.8-2.1 2.6-1.4 0.8-3.4 0.8zm0-1.8q1 0 1.8-0.4 0.7-0.3 1.3-1 0.5-0.8 0.7-2.1 0.3-1.3 0.3-3.3 0-2.1-0.3-3.5-0.2-1.4-0.7-2.3-0.5-0.8-1.3-1.1-0.7-0.4-1.8-0.4-1 0-1.8 0.4-0.8 0.3-1.3 1.1-0.5 0.8-0.8 2.3-0.2 1.4-0.2 3.5 0 2 0.2 3.3 0.3 1.3 0.8 2.1 0.6 0.7 1.3 1 0.8 0.4 1.8 0.4zm14.6 1.8q-1.5 0-2.7-0.4-1.1-0.4-2-1.4-0.8-1-1.2-2.6-0.4-1.7-0.4-4.2 0-2.6 0.4-4.4 0.4-1.7 1.2-2.8 0.8-1 2-1.5 1.2-0.4 2.6-0.4 1.6 0 2.7 0.4 1.2 0.5 2 1.5 0.8 1.1 1.2 2.8 0.4 1.8 0.4 4.4 0 3.3-0.7 5.2-0.8 1.8-2.2 2.6-1.4 0.8-3.3 0.8zm0-1.8q1 0 1.7-0.4 0.8-0.3 1.3-1 0.5-0.8 0.8-2.1 0.3-1.3 0.3-3.3 0-2.1-0.3-3.5-0.2-1.4-0.7-2.3-0.5-0.8-1.3-1.1-0.8-0.4-1.8-0.4-1.1 0-1.9 0.4-0.7 0.3-1.3 1.1-0.5 0.8-0.7 2.3-0.3 1.4-0.3 3.5 0 2 0.3 3.3 0.3 1.3 0.8 2.1 0.5 0.7 1.3 1 0.8 0.4 1.8 0.4zm17.4 1.5h-2.1v-14.8l-4.4 2.9-0.9-1.6 5.4-3.6h2zm11.7 0.2q-1.5 0-2.7-0.4-1.1-0.4-1.9-1.4-0.9-0.9-1.3-2.6-0.4-1.7-0.4-4.1 0-2.7 0.4-4.4 0.4-1.8 1.2-2.8 0.9-1.1 2-1.5 1.2-0.5 2.7-0.5 1.5 0 2.7 0.5 1.1 0.4 1.9 1.5 0.8 1 1.2 2.8 0.4 1.7 0.4 4.4 0 3.2-0.7 5.1-0.8 1.9-2.2 2.7-1.3 0.7-3.3 0.7zm0-1.8q1 0 1.7-0.3 0.8-0.3 1.3-1.1 0.6-0.7 0.8-2 0.3-1.4 0.3-3.3 0-2.2-0.3-3.6-0.2-1.4-0.7-2.2-0.5-0.8-1.3-1.2-0.8-0.3-1.8-0.3-1.1 0-1.8 0.3-0.8 0.4-1.3 1.2-0.5 0.8-0.8 2.2-0.3 1.4-0.3 3.6 0 2 0.3 3.3 0.3 1.3 0.8 2 0.6 0.8 1.3 1.1 0.8 0.3 1.8 0.3zm14.5 1.8q-1.4 0-2.6-0.4-1.2-0.4-2-1.4-0.8-0.9-1.2-2.6-0.5-1.7-0.5-4.1 0-2.7 0.5-4.4 0.4-1.8 1.2-2.8 0.8-1.1 2-1.5 1.1-0.5 2.6-0.5 1.5 0 2.7 0.5 1.2 0.4 2 1.5 0.8 1 1.2 2.8 0.4 1.7 0.4 4.4 0 3.2-0.7 5.1-0.8 1.9-2.2 2.7-1.4 0.7-3.4 0.7zm0-1.8q1.1 0 1.8-0.3 0.8-0.3 1.3-1.1 0.5-0.7 0.8-2 0.2-1.4 0.2-3.3 0-2.2-0.2-3.6-0.2-1.4-0.8-2.2-0.5-0.8-1.2-1.2-0.8-0.3-1.9-0.3-1 0-1.8 0.3-0.8 0.4-1.3 1.2-0.5 0.8-0.7 2.2-0.3 1.4-0.3 3.6 0 2 0.3 3.3 0.3 1.3 0.8 2 0.5 0.8 1.3 1.1 0.8 0.3 1.7 0.3zm17.5 1.6h-2.1v-14.9l-4.4 2.9-1-1.5 5.5-3.7h2zm11.7 0.3q-1.5 0-2.7-0.4-1.1-0.5-2-1.4-0.8-1-1.2-2.7-0.4-1.6-0.4-4.1 0-2.6 0.4-4.4 0.4-1.8 1.2-2.8 0.8-1 2-1.5 1.2-0.4 2.6-0.4 1.6 0 2.7 0.4 1.2 0.5 2 1.5 0.8 1 1.2 2.8 0.4 1.7 0.4 4.4 0 3.3-0.7 5.1-0.8 1.9-2.2 2.7-1.4 0.8-3.3 0.8zm0-1.9q1 0 1.7-0.3 0.8-0.3 1.3-1 0.5-0.8 0.8-2.1 0.3-1.3 0.3-3.3 0-2.2-0.3-3.6-0.2-1.4-0.7-2.2-0.5-0.8-1.3-1.1-0.8-0.4-1.8-0.4-1.1 0-1.9 0.4-0.7 0.3-1.3 1.1-0.5 0.8-0.7 2.2-0.3 1.4-0.3 3.6 0 2 0.3 3.3 0.3 1.3 0.8 2.1 0.5 0.7 1.3 1 0.8 0.3 1.8 0.3zm14.5 1.9q-1.5 0-2.6-0.4-1.2-0.5-2-1.4-0.8-1-1.3-2.7-0.4-1.6-0.4-4.1 0-2.6 0.4-4.4 0.5-1.8 1.3-2.8 0.8-1 1.9-1.5 1.2-0.4 2.7-0.4 1.5 0 2.7 0.4 1.2 0.5 1.9 1.5 0.9 1 1.3 2.8 0.4 1.7 0.4 4.4 0 3.3-0.8 5.1-0.7 1.9-2.1 2.7-1.4 0.8-3.4 0.8zm0-1.9q1 0 1.8-0.3 0.8-0.3 1.3-1 0.5-0.8 0.8-2.1 0.2-1.3 0.2-3.3 0-2.2-0.2-3.6-0.3-1.4-0.8-2.2-0.5-0.8-1.3-1.1-0.7-0.4-1.8-0.4-1 0-1.8 0.4-0.8 0.3-1.3 1.1-0.5 0.8-0.8 2.2-0.2 1.4-0.2 3.6 0 2 0.2 3.3 0.3 1.3 0.9 2.1 0.5 0.7 1.3 1 0.7 0.3 1.7 0.3zm14.6 1.9q-1.5 0-2.7-0.4-1.1-0.5-1.9-1.4-0.9-1-1.3-2.7-0.4-1.6-0.4-4.1 0-2.6 0.4-4.4 0.4-1.8 1.2-2.8 0.9-1 2-1.5 1.2-0.4 2.7-0.4 1.5 0 2.7 0.4 1.1 0.5 1.9 1.5 0.8 1 1.2 2.8 0.4 1.7 0.4 4.4 0 3.3-0.7 5.1-0.8 1.9-2.2 2.7-1.3 0.8-3.3 0.8zm0-1.9q1 0 1.7-0.3 0.8-0.3 1.3-1 0.6-0.8 0.8-2.1 0.3-1.3 0.3-3.3 0-2.2-0.3-3.6-0.2-1.4-0.7-2.2-0.5-0.8-1.3-1.1-0.8-0.4-1.8-0.4-1.1 0-1.8 0.4-0.8 0.3-1.3 1.1-0.5 0.8-0.8 2.2-0.3 1.4-0.3 3.6 0 2 0.3 3.3 0.3 1.3 0.8 2.1 0.6 0.7 1.3 1 0.8 0.3 1.8 0.3zm14.5 1.9q-1.4 0-2.6-0.4-1.2-0.5-2-1.4-0.8-1-1.2-2.7-0.5-1.6-0.5-4.1 0-2.6 0.5-4.4 0.4-1.8 1.2-2.8 0.8-1 2-1.5 1.1-0.4 2.6-0.4 1.5 0 2.7 0.4 1.2 0.5 2 1.5 0.8 1 1.2 2.8 0.4 1.7 0.4 4.4 0 3.3-0.7 5.1-0.8 1.9-2.2 2.7-1.4 0.8-3.4 0.8zm0-1.9q1.1 0 1.8-0.3 0.8-0.3 1.3-1 0.5-0.8 0.8-2.1 0.2-1.3 0.2-3.3 0-2.2-0.2-3.6-0.2-1.4-0.8-2.2-0.5-0.8-1.2-1.1-0.8-0.4-1.9-0.4-1 0-1.8 0.4-0.8 0.3-1.3 1.1-0.5 0.8-0.7 2.2-0.3 1.4-0.3 3.6 0 2 0.3 3.3 0.3 1.3 0.8 2.1 0.5 0.7 1.3 1 0.8 0.3 1.7 0.3zm14.6 1.9q-1.5 0-2.7-0.4-1.1-0.5-1.9-1.4-0.8-1-1.3-2.7-0.4-1.6-0.4-4.1 0-2.6 0.4-4.4 0.4-1.8 1.2-2.8 0.9-1 2-1.5 1.2-0.4 2.7-0.4 1.5 0 2.7 0.4 1.1 0.5 1.9 1.5 0.8 1 1.2 2.8 0.5 1.7 0.5 4.4 0 3.3-0.8 5.1-0.7 1.9-2.1 2.7-1.4 0.8-3.4 0.8zm0-1.9q1 0 1.8-0.3 0.7-0.3 1.3-1 0.5-0.8 0.7-2.1 0.3-1.3 0.3-3.3 0-2.2-0.3-3.6-0.2-1.4-0.7-2.2-0.5-0.8-1.3-1.1-0.7-0.4-1.8-0.4-1 0-1.8 0.4-0.8 0.3-1.3 1.1-0.5 0.8-0.8 2.2-0.2 1.4-0.2 3.6 0 2 0.2 3.3 0.3 1.3 0.8 2.1 0.6 0.7 1.3 1 0.8 0.3 1.8 0.3zm14.6 1.9q-1.5 0-2.7-0.4-1.1-0.5-2-1.4-0.8-1-1.2-2.7-0.4-1.6-0.4-4.1 0-2.6 0.4-4.4 0.4-1.8 1.2-2.8 0.8-1 2-1.5 1.2-0.4 2.6-0.4 1.6 0 2.7 0.4 1.2 0.5 2 1.5 0.8 1 1.2 2.8 0.4 1.7 0.4 4.4 0 3.3-0.7 5.1-0.8 1.9-2.2 2.7-1.4 0.8-3.3 0.8zm0-1.9q1 0 1.7-0.3 0.8-0.3 1.3-1 0.5-0.8 0.8-2.1 0.3-1.3 0.3-3.3 0-2.2-0.3-3.6-0.2-1.4-0.7-2.2-0.5-0.8-1.3-1.1-0.8-0.4-1.8-0.4-1.1 0-1.9 0.4-0.7 0.3-1.3 1.1-0.5 0.8-0.7 2.2-0.3 1.4-0.3 3.6 0 2 0.3 3.3 0.3 1.3 0.8 2.1 0.5 0.7 1.3 1 0.8 0.3 1.8 0.3zm17.4 1.6h-2.1v-14.8l-4.4 2.9-0.9-1.6 5.4-3.6h2zm14.5 0h-2v-14.9l-4.4 2.9-1-1.6 5.5-3.6h1.9zm11.7 0.3q-1.4 0-2.6-0.5-1.2-0.4-2-1.3-0.8-1-1.2-2.7-0.5-1.6-0.5-4.1 0-2.6 0.5-4.4 0.4-1.8 1.2-2.8 0.8-1.1 2-1.5 1.1-0.4 2.6-0.4 1.5 0 2.7 0.4 1.2 0.4 2 1.5 0.8 1 1.2 2.8 0.4 1.7 0.4 4.4 0 3.3-0.7 5.1-0.8 1.9-2.2 2.7-1.4 0.8-3.4 0.8zm0-1.9q1.1 0 1.8-0.3 0.8-0.3 1.3-1.1 0.5-0.7 0.8-2 0.2-1.3 0.2-3.3 0-2.2-0.2-3.6-0.2-1.4-0.8-2.2-0.5-0.8-1.2-1.2-0.8-0.3-1.9-0.3-1 0-1.8 0.3-0.8 0.4-1.3 1.2-0.5 0.8-0.7 2.2-0.3 1.4-0.3 3.6 0 2 0.3 3.3 0.3 1.3 0.8 2.1 0.5 0.7 1.3 1 0.8 0.3 1.7 0.3zm17.5 1.6h-2.1v-14.8l-4.4 2.9-1-1.6 5.5-3.7h2zm11.7 0.3q-1.5 0-2.7-0.4-1.1-0.4-2-1.4-0.8-1-1.2-2.6-0.4-1.7-0.4-4.2 0-2.6 0.4-4.4 0.4-1.7 1.2-2.8 0.8-1 2-1.5 1.2-0.4 2.6-0.4 1.6 0 2.7 0.4 1.2 0.5 2 1.5 0.8 1.1 1.2 2.8 0.4 1.8 0.4 4.4 0 3.3-0.7 5.2-0.8 1.8-2.2 2.6-1.4 0.8-3.3 0.8zm0-1.8q1 0 1.7-0.4 0.8-0.3 1.3-1 0.5-0.8 0.8-2.1 0.3-1.3 0.3-3.3 0-2.1-0.3-3.5-0.2-1.4-0.7-2.3-0.5-0.8-1.3-1.1-0.8-0.4-1.8-0.4-1.1 0-1.9 0.4-0.7 0.3-1.3 1.1-0.5 0.8-0.7 2.3-0.3 1.4-0.3 3.5 0 2 0.3 3.3 0.3 1.3 0.8 2.1 0.5 0.7 1.3 1 0.8 0.4 1.8 0.4zm14.5 1.8q-1.5 0-2.6-0.4-1.2-0.4-2-1.4-0.8-1-1.3-2.6-0.4-1.7-0.4-4.2 0-2.6 0.4-4.4 0.5-1.7 1.3-2.8 0.8-1 1.9-1.5 1.2-0.4 2.7-0.4 1.5 0 2.7 0.4 1.2 0.5 1.9 1.5 0.9 1.1 1.3 2.8 0.4 1.8 0.4 4.4 0 3.3-0.8 5.2-0.7 1.8-2.1 2.6-1.4 0.8-3.4 0.8zm0-1.8q1 0 1.8-0.4 0.8-0.3 1.3-1 0.5-0.8 0.8-2.1 0.2-1.3 0.2-3.3 0-2.1-0.2-3.5-0.3-1.4-0.8-2.3-0.5-0.8-1.3-1.1-0.7-0.4-1.8-0.4-1 0-1.8 0.4-0.8 0.3-1.3 1.1-0.5 0.8-0.8 2.3-0.2 1.4-0.2 3.5 0 2 0.2 3.3 0.3 1.3 0.9 2.1 0.5 0.7 1.3 1 0.7 0.4 1.7 0.4zm17.4 1.5h-2v-14.8l-4.4 2.9-1-1.6 5.5-3.6h1.9zm11.7 0.2q-1.4 0-2.6-0.4-1.2-0.4-2-1.4-0.8-0.9-1.2-2.6-0.5-1.7-0.5-4.1 0-2.7 0.5-4.4 0.4-1.8 1.2-2.8 0.8-1.1 2-1.5 1.1-0.5 2.6-0.5 1.5 0 2.7 0.5 1.2 0.4 2 1.5 0.8 1 1.2 2.8 0.4 1.7 0.4 4.4 0 3.2-0.7 5.1-0.8 1.9-2.2 2.7-1.4 0.7-3.4 0.7zm0-1.8q1.1 0 1.8-0.3 0.8-0.3 1.3-1.1 0.5-0.7 0.8-2 0.2-1.4 0.2-3.3 0-2.2-0.2-3.6-0.2-1.4-0.8-2.2-0.5-0.8-1.2-1.2-0.8-0.3-1.9-0.3-1 0-1.8 0.3-0.8 0.4-1.3 1.2-0.5 0.8-0.7 2.2-0.3 1.4-0.3 3.6 0 2 0.3 3.3 0.3 1.3 0.8 2 0.5 0.8 1.3 1.1 0.8 0.3 1.7 0.3zm17.5 1.6h-2.1v-14.9l-4.4 2.9-1-1.5 5.5-3.7h2zm14.5 0h-2.1v-14.8l-4.3 2.9-1-1.6 5.5-3.6h1.9zm14.6 0h-2.1v-14.9l-4.4 2.9-0.9-1.6 5.4-3.6h2zm11.7 0.3q-1.5 0-2.7-0.5-1.1-0.4-1.9-1.3-0.9-1-1.3-2.7-0.4-1.6-0.4-4.1 0-2.6 0.4-4.4 0.4-1.8 1.2-2.8 0.9-1.1 2-1.5 1.2-0.4 2.7-0.4 1.5 0 2.7 0.4 1.1 0.4 1.9 1.5 0.8 1 1.2 2.8 0.4 1.7 0.4 4.4 0 3.3-0.7 5.1-0.8 1.9-2.2 2.7-1.3 0.8-3.3 0.8zm0-1.9q1 0 1.7-0.3 0.8-0.3 1.3-1.1 0.6-0.7 0.8-2 0.3-1.3 0.3-3.3 0-2.2-0.3-3.6-0.2-1.4-0.7-2.2-0.5-0.8-1.3-1.2-0.8-0.3-1.8-0.3-1.1 0-1.8 0.3-0.8 0.4-1.3 1.2-0.5 0.8-0.8 2.2-0.3 1.4-0.3 3.6 0 2 0.3 3.3 0.3 1.3 0.8 2.1 0.6 0.7 1.3 1 0.8 0.3 1.8 0.3zm17.4 1.6h-2.1v-14.8l-4.3 2.9-1-1.6 5.4-3.7h2zm11.7 0.3q-1.5 0-2.7-0.4-1.1-0.4-1.9-1.4-0.8-1-1.3-2.6-0.4-1.7-0.4-4.2 0-2.6 0.4-4.4 0.4-1.7 1.2-2.8 0.9-1 2-1.5 1.2-0.4 2.7-0.4 1.5 0 2.7 0.4 1.1 0.5 1.9 1.5 0.8 1.1 1.2 2.8 0.5 1.8 0.5 4.4 0 3.3-0.8 5.2-0.7 1.8-2.1 2.6-1.4 0.8-3.4 0.8zm0-1.8q1 0 1.8-0.4 0.7-0.3 1.3-1 0.5-0.8 0.7-2.1 0.3-1.3 0.3-3.3 0-2.1-0.3-3.5-0.2-1.4-0.7-2.3-0.5-0.8-1.3-1.1-0.7-0.4-1.8-0.4-1 0-1.8 0.4-0.8 0.3-1.3 1.1-0.5 0.8-0.8 2.3-0.2 1.4-0.2 3.5 0 2 0.2 3.3 0.3 1.3 0.8 2.1 0.6 0.7 1.3 1 0.8 0.4 1.8 0.4zm14.6 1.8q-1.5 0-2.7-0.4-1.1-0.4-2-1.4-0.8-1-1.2-2.6-0.4-1.7-0.4-4.2 0-2.6 0.4-4.4 0.4-1.7 1.2-2.8 0.8-1 2-1.5 1.2-0.4 2.6-0.4 1.6 0 2.7 0.4 1.2 0.5 2 1.5 0.8 1.1 1.2 2.8 0.4 1.8 0.4 4.4 0 3.3-0.7 5.2-0.8 1.8-2.2 2.6-1.4 0.8-3.3 0.8zm0-1.8q1 0 1.7-0.4 0.8-0.3 1.3-1 0.5-0.8 0.8-2.1 0.3-1.3 0.3-3.3 0-2.1-0.3-3.5-0.2-1.4-0.7-2.3-0.5-0.8-1.3-1.1-0.8-0.4-1.8-0.4-1.1 0-1.9 0.4-0.7 0.3-1.3 1.1-0.5 0.8-0.7 2.3-0.3 1.4-0.3 3.5 0 2 0.3 3.3 0.3 1.3 0.8 2.1 0.5 0.7 1.3 1 0.8 0.4 1.8 0.4zm14.5 1.8q-1.5 0-2.6-0.4-1.2-0.4-2-1.4-0.8-1-1.3-2.6-0.4-1.7-0.4-4.2 0-2.6 0.4-4.4 0.5-1.7 1.3-2.8 0.8-1 1.9-1.5 1.2-0.4 2.7-0.4 1.5 0 2.7 0.4 1.2 0.5 1.9 1.5 0.9 1.1 1.3 2.8 0.4 1.8 0.4 4.4 0 3.3-0.8 5.2-0.7 1.8-2.1 2.6-1.4 0.8-3.4 0.8zm0-1.8q1 0 1.8-0.4 0.8-0.3 1.3-1 0.5-0.8 0.8-2.1 0.2-1.3 0.2-3.3 0-2.1-0.2-3.5-0.3-1.4-0.8-2.3-0.5-0.8-1.3-1.1-0.7-0.4-1.8-0.4-1 0-1.8 0.4-0.8 0.3-1.3 1.1-0.5 0.8-0.8 2.3-0.2 1.4-0.2 3.5 0 2 0.2 3.3 0.3 1.3 0.9 2.1 0.5 0.7 1.3 1 0.7 0.4 1.7 0.4zm14.6 1.8q-1.5 0-2.7-0.4-1.1-0.4-1.9-1.4-0.9-1-1.3-2.6-0.4-1.7-0.4-4.2 0-2.6 0.4-4.4 0.4-1.7 1.2-2.8 0.9-1 2-1.5 1.2-0.4 2.7-0.4 1.5 0 2.7 0.4 1.1 0.5 1.9 1.5 0.8 1.1 1.2 2.8 0.4 1.8 0.4 4.4 0 3.3-0.7 5.2-0.8 1.8-2.2 2.6-1.3 0.8-3.3 0.8zm0-1.8q1 0 1.7-0.4 0.8-0.3 1.3-1 0.6-0.8 0.8-2.1 0.3-1.3 0.3-3.3 0-2.1-0.3-3.5-0.2-1.4-0.7-2.3-0.5-0.8-1.3-1.1-0.8-0.4-1.8-0.4-1.1 0-1.8 0.4-0.8 0.3-1.3 1.1-0.5 0.8-0.8 2.3-0.3 1.4-0.3 3.5 0 2 0.3 3.3 0.3 1.3 0.8 2.1 0.6 0.7 1.3 1 0.8 0.4 1.8 0.4zm17.4 1.5h-2.1v-14.8l-4.3 2.9-1-1.6 5.4-3.6h2zm11.7 0.2q-1.5 0-2.7-0.4-1.1-0.4-1.9-1.4-0.8-0.9-1.3-2.6-0.4-1.7-0.4-4.1 0-2.7 0.4-4.4 0.4-1.8 1.2-2.8 0.9-1.1 2-1.5 1.2-0.5 2.7-0.5 1.5 0 2.7 0.5 1.1 0.4 1.9 1.5 0.8 1 1.2 2.8 0.5 1.7 0.5 4.4 0 3.2-0.8 5.1-0.7 1.9-2.1 2.7-1.4 0.7-3.4 0.7zm0-1.8q1 0 1.8-0.3 0.7-0.3 1.3-1.1 0.5-0.7 0.7-2 0.3-1.4 0.3-3.3 0-2.2-0.3-3.6-0.2-1.4-0.7-2.2-0.5-0.8-1.3-1.2-0.7-0.3-1.8-0.3-1 0-1.8 0.3-0.8 0.4-1.3 1.2-0.5 0.8-0.8 2.2-0.2 1.4-0.2 3.6 0 2 0.2 3.3 0.3 1.3 0.8 2 0.6 0.8 1.3 1.1 0.8 0.3 1.8 0.3zm14.6 1.8q-1.5 0-2.7-0.4-1.1-0.4-2-1.4-0.8-0.9-1.2-2.6-0.4-1.7-0.4-4.1 0-2.7 0.4-4.4 0.4-1.8 1.2-2.8 0.8-1.1 2-1.5 1.2-0.5 2.6-0.5 1.6 0 2.7 0.5 1.2 0.4 2 1.5 0.8 1 1.2 2.8 0.4 1.7 0.4 4.4 0 3.2-0.7 5.1-0.8 1.9-2.2 2.7-1.4 0.7-3.3 0.7zm0-1.8q1 0 1.7-0.3 0.8-0.3 1.3-1.1 0.5-0.7 0.8-2 0.3-1.4 0.3-3.3 0-2.2-0.3-3.6-0.2-1.4-0.7-2.2-0.5-0.8-1.3-1.2-0.8-0.3-1.8-0.3-1.1 0-1.9 0.3-0.7 0.4-1.3 1.2-0.5 0.8-0.7 2.2-0.3 1.4-0.3 3.6 0 2 0.3 3.3 0.3 1.3 0.8 2 0.5 0.8 1.3 1.1 0.8 0.3 1.8 0.3zm14.5 1.8q-1.5 0-2.6-0.4-1.2-0.4-2-1.4-0.8-0.9-1.3-2.6-0.4-1.7-0.4-4.1 0-2.7 0.4-4.4 0.5-1.8 1.3-2.8 0.8-1.1 1.9-1.5 1.2-0.5 2.7-0.5 1.5 0 2.7 0.5 1.2 0.4 1.9 1.5 0.9 1 1.3 2.8 0.4 1.7 0.4 4.4 0 3.2-0.8 5.1-0.7 1.9-2.1 2.7-1.4 0.7-3.4 0.7zm0-1.8q1 0 1.8-0.3 0.8-0.3 1.3-1.1 0.5-0.7 0.8-2 0.2-1.4 0.2-3.3 0-2.2-0.2-3.6-0.3-1.4-0.8-2.2-0.5-0.8-1.3-1.2-0.7-0.3-1.8-0.3-1 0-1.8 0.3-0.8 0.4-1.3 1.2-0.5 0.8-0.8 2.2-0.2 1.4-0.2 3.6 0 2 0.2 3.3 0.3 1.3 0.9 2 0.5 0.8 1.3 1.1 0.7 0.3 1.7 0.3zm14.6 1.8q-1.5 0-2.7-0.4-1.1-0.4-1.9-1.4-0.9-0.9-1.3-2.6-0.4-1.7-0.4-4.1 0-2.7 0.4-4.4 0.4-1.8 1.2-2.8 0.9-1.1 2-1.5 1.2-0.5 2.7-0.5 1.5 0 2.7 0.5 1.1 0.4 1.9 1.5 0.8 1 1.2 2.8 0.4 1.7 0.4 4.4 0 3.2-0.7 5.1-0.8 1.9-2.2 2.7-1.3 0.7-3.3 0.7zm0-1.8q1 0 1.7-0.3 0.8-0.3 1.3-1.1 0.6-0.7 0.8-2 0.3-1.4 0.3-3.3 0-2.2-0.3-3.6-0.2-1.4-0.7-2.2-0.5-0.8-1.3-1.2-0.8-0.3-1.8-0.3-1.1 0-1.8 0.3-0.8 0.4-1.3 1.2-0.5 0.8-0.8 2.2-0.3 1.4-0.3 3.6 0 2 0.3 3.3 0.3 1.3 0.8 2 0.6 0.8 1.3 1.1 0.8 0.3 1.8 0.3zm14.5 1.8q-1.4 0-2.6-0.4-1.2-0.4-2-1.4-0.8-0.9-1.2-2.6-0.5-1.7-0.5-4.1 0-2.7 0.5-4.4 0.4-1.8 1.2-2.8 0.8-1.1 2-1.5 1.1-0.5 2.6-0.5 1.5 0 2.7 0.5 1.2 0.4 2 1.5 0.8 1 1.2 2.8 0.4 1.7 0.4 4.4 0 3.2-0.7 5.1-0.8 1.9-2.2 2.7-1.4 0.7-3.4 0.7zm0-1.8q1.1 0 1.8-0.3 0.8-0.3 1.3-1.1 0.5-0.7 0.8-2 0.2-1.4 0.2-3.3 0-2.2-0.2-3.6-0.2-1.4-0.8-2.2-0.5-0.8-1.2-1.2-0.8-0.3-1.9-0.3-1 0-1.8 0.3-0.8 0.4-1.3 1.2-0.5 0.8-0.7 2.2-0.3 1.4-0.3 3.6 0 2 0.3 3.3 0.3 1.3 0.8 2 0.5 0.8 1.3 1.1 0.8 0.3 1.7 0.3zm14.6 1.8q-1.5 0-2.7-0.4-1.1-0.4-1.9-1.4-0.8-0.9-1.3-2.6-0.4-1.7-0.4-4.1 0-2.7 0.4-4.4 0.4-1.8 1.2-2.8 0.9-1.1 2-1.5 1.2-0.5 2.7-0.5 1.5 0 2.7 0.5 1.1 0.4 1.9 1.5 0.8 1 1.2 2.8 0.5 1.7 0.5 4.4 0 3.2-0.8 5.1-0.7 1.9-2.1 2.7-1.4 0.7-3.4 0.7zm0-1.8q1 0 1.8-0.3 0.7-0.3 1.3-1.1 0.5-0.7 0.7-2 0.3-1.4 0.3-3.3 0-2.2-0.3-3.6-0.2-1.4-0.7-2.2-0.5-0.8-1.3-1.2-0.7-0.3-1.8-0.3-1 0-1.8 0.3-0.8 0.4-1.3 1.2-0.5 0.8-0.8 2.2-0.2 1.4-0.2 3.6 0 2 0.2 3.3 0.3 1.3 0.8 2 0.6 0.8 1.3 1.1 0.8 0.3 1.8 0.3zm17.4 1.6h-2.1v-14.9l-4.3 2.9-1-1.5 5.5-3.7h1.9zm14.6 0h-2.1v-14.8l-4.4 2.9-0.9-1.6 5.4-3.6h2zm11.7 0.2q-1.5 0-2.7-0.4-1.1-0.4-1.9-1.4-0.9-1-1.3-2.6-0.4-1.7-0.4-4.2 0-2.6 0.4-4.4 0.4-1.7 1.2-2.8 0.9-1 2-1.4 1.2-0.5 2.7-0.5 1.5 0 2.7 0.5 1.1 0.4 1.9 1.4 0.8 1.1 1.2 2.8 0.4 1.8 0.4 4.4 0 3.3-0.7 5.2-0.8 1.9-2.2 2.6-1.3 0.8-3.3 0.8zm0-1.8q1 0 1.7-0.3 0.8-0.3 1.3-1.1 0.6-0.8 0.8-2.1 0.3-1.3 0.3-3.3 0-2.1-0.3-3.5-0.2-1.4-0.7-2.2-0.5-0.9-1.3-1.2-0.8-0.3-1.8-0.3-1.1 0-1.8 0.3-0.8 0.3-1.3 1.1-0.5 0.8-0.8 2.3-0.3 1.4-0.3 3.6 0 1.9 0.3 3.3 0.3 1.3 0.8 2 0.6 0.8 1.3 1.1 0.8 0.3 1.8 0.3zm14.5 1.8q-1.4 0-2.6-0.4-1.2-0.4-2-1.4-0.8-1-1.2-2.6-0.5-1.7-0.5-4.2 0-2.6 0.5-4.4 0.4-1.7 1.2-2.8 0.8-1 2-1.4 1.1-0.5 2.6-0.5 1.5 0 2.7 0.5 1.2 0.4 2 1.4 0.8 1.1 1.2 2.8 0.4 1.8 0.4 4.4 0 3.3-0.7 5.2-0.8 1.9-2.2 2.6-1.4 0.8-3.4 0.8zm0-1.8q1.1 0 1.8-0.3 0.8-0.3 1.3-1.1 0.5-0.8 0.8-2.1 0.2-1.3 0.2-3.3 0-2.1-0.2-3.5-0.2-1.4-0.8-2.2-0.5-0.9-1.2-1.2-0.8-0.3-1.9-0.3-1 0-1.8 0.3-0.8 0.3-1.3 1.1-0.5 0.8-0.7 2.3-0.3 1.4-0.3 3.6 0 1.9 0.3 3.3 0.3 1.3 0.8 2 0.5 0.8 1.3 1.1 0.8 0.3 1.7 0.3zm14.6 1.8q-1.5 0-2.7-0.4-1.1-0.4-1.9-1.4-0.8-1-1.3-2.6-0.4-1.7-0.4-4.2 0-2.6 0.4-4.4 0.4-1.7 1.2-2.8 0.9-1 2-1.4 1.2-0.5 2.7-0.5 1.5 0 2.7 0.5 1.1 0.4 1.9 1.4 0.8 1.1 1.2 2.8 0.5 1.8 0.5 4.4 0 3.3-0.8 5.2-0.7 1.9-2.1 2.6-1.4 0.8-3.4 0.8zm0-1.8q1 0 1.8-0.3 0.7-0.3 1.3-1.1 0.5-0.8 0.7-2.1 0.3-1.3 0.3-3.3 0-2.1-0.3-3.5-0.2-1.4-0.7-2.2-0.5-0.9-1.3-1.2-0.7-0.3-1.8-0.3-1 0-1.8 0.3-0.8 0.3-1.3 1.1-0.5 0.8-0.8 2.3-0.2 1.4-0.2 3.6 0 1.9 0.2 3.3 0.3 1.3 0.8 2 0.6 0.8 1.3 1.1 0.8 0.3 1.8 0.3zm17.4 1.6h-2.1v-14.9l-4.3 2.9-1-1.6 5.5-3.6h1.9zm14.6 0h-2.1v-14.8l-4.4 2.9-0.9-1.6 5.4-3.7h2zm11.7 0.3q-1.5 0-2.7-0.4-1.1-0.4-1.9-1.4-0.9-1-1.3-2.6-0.4-1.7-0.4-4.2 0-2.6 0.4-4.4 0.4-1.7 1.2-2.8 0.9-1 2-1.5 1.2-0.4 2.7-0.4 1.5 0 2.7 0.4 1.1 0.5 1.9 1.5 0.8 1.1 1.2 2.8 0.4 1.8 0.4 4.4 0 3.3-0.7 5.2-0.8 1.8-2.2 2.6-1.3 0.8-3.3 0.8zm0-1.8q1 0 1.7-0.4 0.8-0.3 1.3-1 0.6-0.8 0.8-2.1 0.3-1.3 0.3-3.3 0-2.1-0.3-3.5-0.2-1.4-0.7-2.3-0.5-0.8-1.3-1.1-0.8-0.4-1.8-0.4-1.1 0-1.8 0.4-0.8 0.3-1.3 1.1-0.5 0.8-0.8 2.3-0.3 1.4-0.3 3.5 0 2 0.3 3.3 0.3 1.3 0.8 2.1 0.6 0.7 1.3 1 0.8 0.4 1.8 0.4zm17.4 1.5h-2.1v-14.8l-4.3 2.9-1-1.6 5.4-3.6h2zm14.6 0h-2.1v-14.9l-4.4 2.9-1-1.5 5.5-3.7h2zm11.7 0.3q-1.5 0-2.7-0.4-1.1-0.5-2-1.4-0.8-1-1.2-2.7-0.4-1.6-0.4-4.1 0-2.6 0.4-4.4 0.4-1.8 1.2-2.8 0.8-1 2-1.5 1.2-0.4 2.6-0.4 1.6 0 2.7 0.4 1.2 0.5 2 1.5 0.8 1 1.2 2.8 0.4 1.7 0.4 4.4 0 3.3-0.7 5.1-0.8 1.9-2.2 2.7-1.4 0.8-3.3 0.8zm0-1.9q1 0 1.7-0.3 0.8-0.3 1.3-1 0.5-0.8 0.8-2.1 0.3-1.3 0.3-3.3 0-2.2-0.3-3.6-0.2-1.4-0.7-2.2-0.5-0.8-1.3-1.1-0.8-0.4-1.8-0.4-1.1 0-1.9 0.4-0.7 0.3-1.3 1.1-0.5 0.8-0.7 2.2-0.3 1.4-0.3 3.6 0 2 0.3 3.3 0.3 1.3 0.8 2.1 0.5 0.7 1.3 1 0.8 0.3 1.8 0.3zm17.4 1.6h-2.1v-14.8l-4.4 2.9-0.9-1.6 5.4-3.6h2zm14.5 0h-2v-14.9l-4.4 2.9-1-1.6 5.5-3.6h1.9zm11.7 0.3q-1.4 0-2.6-0.5-1.2-0.4-2-1.3-0.8-1-1.2-2.7-0.5-1.6-0.5-4.1 0-2.6 0.5-4.4 0.4-1.8 1.2-2.8 0.8-1.1 2-1.5 1.1-0.4 2.6-0.4 1.5 0 2.7 0.4 1.2 0.4 2 1.5 0.8 1 1.2 2.8 0.4 1.7 0.4 4.4 0 3.3-0.7 5.1-0.8 1.9-2.2 2.7-1.4 0.8-3.4 0.8zm0-1.9q1.1 0 1.8-0.3 0.8-0.3 1.3-1.1 0.5-0.7 0.8-2 0.2-1.3 0.2-3.3 0-2.2-0.2-3.6-0.2-1.4-0.8-2.2-0.5-0.8-1.2-1.2-0.8-0.3-1.9-0.3-1 0-1.8 0.3-0.8 0.4-1.3 1.2-0.5 0.8-0.7 2.2-0.3 1.4-0.3 3.6 0 2 0.3 3.3 0.3 1.3 0.8 2.1 0.5 0.7 1.3 1 0.8 0.3 1.7 0.3zm14.6 1.9q-1.5 0-2.7-0.5-1.1-0.4-1.9-1.3-0.8-1-1.3-2.7-0.4-1.6-0.4-4.1 0-2.6 0.4-4.4 0.4-1.8 1.2-2.8 0.9-1.1 2-1.5 1.2-0.4 2.7-0.4 1.5 0 2.7 0.4 1.1 0.4 1.9 1.5 0.8 1 1.2 2.8 0.5 1.7 0.5 4.4 0 3.3-0.8 5.1-0.7 1.9-2.1 2.7-1.4 0.8-3.4 0.8zm0-1.9q1 0 1.8-0.3 0.7-0.3 1.3-1.1 0.5-0.7 0.7-2 0.3-1.3 0.3-3.3 0-2.2-0.3-3.6-0.2-1.4-0.7-2.2-0.5-0.8-1.3-1.2-0.7-0.3-1.8-0.3-1 0-1.8 0.3-0.8 0.4-1.3 1.2-0.5 0.8-0.8 2.2-0.2 1.4-0.2 3.6 0 2 0.2 3.3 0.3 1.3 0.8 2.1 0.6 0.7 1.3 1 0.8 0.3 1.8 0.3zm14.6 1.9q-1.5 0-2.7-0.5-1.1-0.4-2-1.3-0.8-1-1.2-2.7-0.4-1.6-0.4-4.1 0-2.6 0.4-4.4 0.4-1.8 1.2-2.8 0.8-1.1 2-1.5 1.2-0.4 2.6-0.4 1.6 0 2.7 0.4 1.2 0.4 2 1.5 0.8 1 1.2 2.8 0.4 1.7 0.4 4.4 0 3.3-0.7 5.1-0.8 1.9-2.2 2.7-1.4 0.8-3.3 0.8zm0-1.9q1 0 1.7-0.3 0.8-0.3 1.3-1.1 0.5-0.7 0.8-2 0.3-1.3 0.3-3.3 0-2.2-0.3-3.6-0.2-1.4-0.7-2.2-0.5-0.8-1.3-1.2-0.8-0.3-1.8-0.3-1.1 0-1.9 0.3-0.7 0.4-1.3 1.2-0.5 0.8-0.7 2.2-0.3 1.4-0.3 3.6 0 2 0.3 3.3 0.3 1.3 0.8 2.1 0.5 0.7 1.3 1 0.8 0.3 1.8 0.3zm17.4 1.6h-2.1v-14.8l-4.4 2.9-0.9-1.6 5.4-3.7h2zm14.5 0h-2v-14.8l-4.4 2.9-1-1.6 5.5-3.6h1.9zm14.6 0h-2.1v-14.9l-4.3 2.9-1-1.5 5.4-3.7h2zm11.7 0.3q-1.5 0-2.7-0.4-1.1-0.5-1.9-1.4-0.8-1-1.3-2.7-0.4-1.6-0.4-4.1 0-2.6 0.4-4.4 0.4-1.8 1.2-2.8 0.9-1 2-1.5 1.2-0.4 2.7-0.4 1.5 0 2.7 0.4 1.1 0.5 1.9 1.5 0.8 1 1.2 2.8 0.5 1.7 0.5 4.4 0 3.3-0.8 5.1-0.7 1.9-2.1 2.7-1.4 0.8-3.4 0.8zm0-1.9q1 0 1.8-0.3 0.7-0.3 1.3-1 0.5-0.8 0.7-2.1 0.3-1.3 0.3-3.3 0-2.2-0.3-3.6-0.2-1.4-0.7-2.2-0.5-0.8-1.3-1.1-0.7-0.4-1.8-0.4-1 0-1.8 0.4-0.8 0.3-1.3 1.1-0.5 0.8-0.8 2.2-0.2 1.4-0.2 3.6 0 2 0.2 3.3 0.3 1.3 0.8 2.1 0.6 0.7 1.3 1 0.8 0.3 1.8 0.3zm17.4 1.6h-2.1v-14.8l-4.3 2.9-1-1.6 5.5-3.6h1.9zm11.7 0.2q-1.5 0-2.6-0.4-1.2-0.4-2-1.4-0.8-1-1.3-2.6-0.4-1.7-0.4-4.2 0-2.6 0.4-4.4 0.5-1.7 1.3-2.8 0.8-1 1.9-1.4 1.2-0.5 2.7-0.5 1.5 0 2.7 0.5 1.2 0.4 1.9 1.4 0.9 1.1 1.3 2.8 0.4 1.8 0.4 4.4 0 3.3-0.8 5.2-0.7 1.9-2.1 2.6-1.4 0.8-3.4 0.8zm0-1.8q1 0 1.8-0.3 0.8-0.3 1.3-1.1 0.5-0.8 0.8-2.1 0.2-1.3 0.2-3.3 0-2.1-0.2-3.5-0.3-1.4-0.8-2.2-0.5-0.9-1.3-1.2-0.7-0.3-1.8-0.3-1 0-1.8 0.3-0.8 0.3-1.3 1.1-0.5 0.8-0.8 2.3-0.2 1.4-0.2 3.6 0 1.9 0.2 3.3 0.3 1.3 0.9 2 0.5 0.8 1.3 1.1 0.7 0.3 1.7 0.3zm17.4 1.6h-2v-14.9l-4.4 2.9-1-1.6 5.5-3.6h1.9zm11.7 0.3q-1.4 0-2.6-0.5-1.2-0.4-2-1.3-0.8-1-1.2-2.7-0.5-1.6-0.5-4.1 0-2.6 0.5-4.4 0.4-1.8 1.2-2.8 0.8-1.1 2-1.5 1.1-0.4 2.6-0.4 1.5 0 2.7 0.4 1.2 0.4 2 1.5 0.8 1 1.2 2.8 0.4 1.7 0.4 4.4 0 3.3-0.7 5.1-0.8 1.9-2.2 2.7-1.4 0.8-3.4 0.8zm0-1.9q1.1 0 1.8-0.3 0.8-0.3 1.3-1.1 0.5-0.7 0.8-2 0.2-1.3 0.2-3.3 0-2.2-0.2-3.6-0.2-1.4-0.8-2.2-0.5-0.8-1.2-1.2-0.8-0.3-1.9-0.3-1 0-1.8 0.3-0.8 0.4-1.3 1.2-0.5 0.8-0.7 2.2-0.3 1.4-0.3 3.6 0 2 0.3 3.3 0.3 1.3 0.8 2.1 0.5 0.7 1.3 1 0.8 0.3 1.7 0.3zm17.5 1.6h-2.1v-14.8l-4.4 2.9-1-1.6 5.5-3.7h2zm14.5 0h-2.1v-14.8l-4.3 2.9-1-1.6 5.5-3.6h1.9zm11.7 0.2q-1.5 0-2.6-0.4-1.2-0.4-2-1.4-0.8-0.9-1.3-2.6-0.4-1.7-0.4-4.1 0-2.7 0.4-4.4 0.5-1.8 1.3-2.8 0.8-1.1 1.9-1.5 1.2-0.5 2.7-0.5 1.5 0 2.7 0.5 1.2 0.4 1.9 1.5 0.9 1 1.3 2.8 0.4 1.7 0.4 4.4 0 3.2-0.8 5.1-0.7 1.9-2.1 2.7-1.4 0.7-3.4 0.7zm0-1.8q1 0 1.8-0.3 0.8-0.3 1.3-1.1 0.5-0.7 0.8-2 0.2-1.4 0.2-3.3 0-2.2-0.2-3.6-0.3-1.4-0.8-2.2-0.5-0.8-1.3-1.2-0.7-0.3-1.8-0.3-1 0-1.8 0.3-0.8 0.4-1.3 1.2-0.5 0.8-0.8 2.2-0.2 1.4-0.2 3.6 0 2 0.2 3.3 0.3 1.3 0.9 2 0.5 0.8 1.3 1.1 0.7 0.3 1.7 0.3zm14.6 1.8q-1.5 0-2.7-0.4-1.1-0.4-1.9-1.4-0.9-0.9-1.3-2.6-0.4-1.7-0.4-4.1 0-2.7 0.4-4.4 0.4-1.8 1.2-2.8 0.9-1.1 2-1.5 1.2-0.5 2.7-0.5 1.5 0 2.7 0.5 1.1 0.4 1.9 1.5 0.8 1 1.2 2.8 0.4 1.7 0.4 4.4 0 3.2-0.7 5.1-0.8 1.9-2.2 2.7-1.3 0.7-3.3 0.7zm0-1.8q1 0 1.7-0.3 0.8-0.3 1.3-1.1 0.6-0.7 0.8-2 0.3-1.4 0.3-3.3 0-2.2-0.3-3.6-0.2-1.4-0.7-2.2-0.5-0.8-1.3-1.2-0.8-0.3-1.8-0.3-1.1 0-1.8 0.3-0.8 0.4-1.3 1.2-0.5 0.8-0.8 2.2-0.3 1.4-0.3 3.6 0 2 0.3 3.3 0.3 1.3 0.8 2 0.6 0.8 1.3 1.1 0.8 0.3 1.8 0.3zm14.5 1.8q-1.4 0-2.6-0.4-1.2-0.4-2-1.4-0.8-0.9-1.2-2.6-0.5-1.7-0.5-4.1 0-2.7 0.5-4.4 0.4-1.8 1.2-2.8 0.8-1.1 2-1.5 1.1-0.5 2.6-0.5 1.5 0 2.7 0.5 1.2 0.4 2 1.5 0.8 1 1.2 2.8 0.4 1.7 0.4 4.4 0 3.2-0.7 5.1-0.8 1.9-2.2 2.7-1.4 0.7-3.4 0.7zm0-1.8q1.1 0 1.8-0.3 0.8-0.3 1.3-1.1 0.5-0.7 0.8-2 0.2-1.4 0.2-3.3 0-2.2-0.2-3.6-0.2-1.4-0.8-2.2-0.5-0.8-1.2-1.2-0.8-0.3-1.9-0.3-1 0-1.8 0.3-0.8 0.4-1.3 1.2-0.5 0.8-0.7 2.2-0.3 1.4-0.3 3.6 0 2 0.3 3.3 0.3 1.3 0.8 2 0.5 0.8 1.3 1.1 0.8 0.3 1.7 0.3zm17.5 1.6h-2.1v-14.9l-4.4 2.9-1-1.5 5.5-3.7h2zm11.7 0.3q-1.5 0-2.7-0.4-1.1-0.5-2-1.4-0.8-1-1.2-2.7-0.4-1.6-0.4-4.1 0-2.6 0.4-4.4 0.4-1.8 1.2-2.8 0.8-1 2-1.5 1.2-0.4 2.6-0.4 1.6 0 2.7 0.4 1.2 0.5 2 1.5 0.8 1 1.2 2.8 0.4 1.7 0.4 4.4 0 3.3-0.7 5.1-0.8 1.9-2.2 2.7-1.4 0.8-3.3 0.8zm0-1.9q1 0 1.7-0.3 0.8-0.3 1.3-1 0.5-0.8 0.8-2.1 0.3-1.3 0.3-3.3 0-2.2-0.3-3.6-0.2-1.4-0.7-2.2-0.5-0.8-1.3-1.1-0.8-0.4-1.8-0.4-1.1 0-1.9 0.4-0.7 0.3-1.3 1.1-0.5 0.8-0.7 2.2-0.3 1.4-0.3 3.6 0 2 0.3 3.3 0.3 1.3 0.8 2.1 0.5 0.7 1.3 1 0.8 0.3 1.8 0.3z"/></svg>